<svg xmlns="http://www.w3.org/2000/svg" viewBox="0 0 59.9 54.4"><title>bike</title><g id="Layer_2" data-name="Layer 2"><g id="Layer_1-2" data-name="Layer 1"><polygon points="11.2 37 15.8 22.8 13 22.7 8.5 36.9 11.2 37" style="fill:#f1c40f"/><ellipse cx="9.9" cy="36.8" rx="1.4" ry="0.8" style="fill:#f1c40f"/><ellipse cx="14.4" cy="22.7" rx="1.4" ry="0.8" style="fill:#fea"/><path d="M13.7,22.6c0-.1,0-.2.1-.2l.8-2.5H16l-.8,2.7h0l-.2.2a2.1,2.1,0,0,1-1.1,0l-.2-.3Z" style="fill:#2c3e50"/><path d="M11.1,26.3C5,29.8,0,38.5,0,45.5s5,10,11.1,6.4S22.2,39.8,22.2,32.7,17.2,22.8,11.1,26.3Zm.8,23.9c-5.1,3-9.2.6-9.2-5.3s4.1-13,9.2-16,9.2-.5,9.2,5.4S17,47.3,11.9,50.2Z" style="fill:#34495e"/><path d="M11.9,28.2C6.4,31.3,2,39,2,45.3s4.4,8.8,9.9,5.7,9.9-10.8,9.9-17.1S17.3,25,11.9,28.2Zm0,22c-5.1,3-9.2.6-9.2-5.3s4.1-13,9.2-16,9.2-.5,9.2,5.4S17,47.3,11.9,50.2Z" style="fill:#f8fcff"/><path d="M11.6,36.5a5.6,5.6,0,0,0-2.5,4.4c0,1.6,1.1,2.2,2.5,1.4A5.4,5.4,0,0,0,14.1,38C14.1,36.4,13,35.7,11.6,36.5Z" style="fill:#162029"/><path d="M11.9,38.6a1.7,1.7,0,0,0-.9,1.5c0,.6.4.8.9.5a2,2,0,0,0,.9-1.5C12.8,38.5,12.4,38.3,11.9,38.6Z" style="fill:#fcfeff"/><path d="M12.1,39.5c0,.1-.1.3-.2.3s-.2,0-.2-.1a.8.8,0,0,1,.2-.4C12,39.3,12.1,39.3,12.1,39.5Z" style="fill:#f1feff"/><path d="M47.3,5.4C41.1,9,36.2,17.6,36.2,24.7s4.9,9.9,11.1,6.4S58.4,18.9,58.4,11.8,53.4,1.9,47.3,5.4ZM48,29.3c-5,3-9.2.6-9.2-5.3S43,11,48,8.1s9.3-.6,9.3,5.3S53.1,26.4,48,29.3Z" style="fill:#34495e"/><path d="M48,7.3c-5.4,3.2-9.8,10.8-9.8,17.1s4.4,8.9,9.8,5.7S57.9,19.3,57.9,13,53.5,4.2,48,7.3Zm0,22c-5,3-9.2.6-9.2-5.3S43,11,48,8.1s9.3-.6,9.3,5.3S53.1,26.4,48,29.3Z" style="fill:#f8fcff"/><path d="M47.7,15.6A5.6,5.6,0,0,0,45.2,20c0,1.5,1.1,2.2,2.5,1.4a5.4,5.4,0,0,0,2.5-4.3C50.2,15.5,49.1,14.8,47.7,15.6Z" style="fill:#162029"/><path d="M48,17.7a2.2,2.2,0,0,0-.8,1.5c0,.6.4.8.8.5a1.9,1.9,0,0,0,.9-1.5C48.9,17.6,48.5,17.4,48,17.7Z" style="fill:#fcfeff"/><path d="M48.3,18.6a.3.3,0,0,1-.3.3c-.1.1-.2.1-.2-.1s.1-.3.2-.3S48.3,18.5,48.3,18.6Z" style="fill:#f1feff"/><path d="M22,34.8l-5,3.8-.9-.5.9-1.6,5-2v-1l-4.4,1.8,3.1-5.5-.5-.3-3.6,6.2-1.3.5.2-1.6,4.5-5.3-.3-.6-4,4.7.7-5.6-.8.3-.8,6.3-1.2,1.3-.6-1,2.3-6.5h-.7l-2,5.8-2.1-3.5-.7.9,2.3,3.8-.6,1.7H10.5l-.8-5.3-.8.6.7,4.7h-4l-.4,1H9.8l.2,1.4-1.3,1L5.1,38.2l-.6,1L7.7,41,3.3,44.4v.9l5-3.8.9.5-.9,1.6-5,2v.9l4.4-1.7L4.5,50.3l.6.3,3.6-6.2,1.3-.5-.2,1.6L5.2,50.8l.4.6,4-4.7-.7,5.6.8-.4.8-6.2,1.1-1.4.6,1L9.9,51.9h.7l2.1-5.8,2,3.4.7-.8-2.3-3.9.6-1.7h1.2l.8,5.3.8-.6-.7-4.7h4l.3-1H15.6l-.2-1.3,1.3-1,3.6,2,.5-.9L17.7,39l4.4-3.4Zm-6,2.1-.5.9-.3-.2v-.4Zm-1.6,2.8-.3.4.4.2v.2h-.6l-.2.5-.3.3v.7h-.2l-.2-.4-.3.4h-.3l-.3.6v.2h-.1v-.6h-.4V42l-.5.6h-.1v-.2l.3-.6H11v-.5l-.4.2h-.2l.2-.2.4-.3v-.4l.2-.5-.3-.2h0v-.2h.5V39l.4-.3V38h.1l.3.3.3-.3H13l.2-.7h.3v.6h.3l.2.2.4-.5h.2v.2l-.4.6h.3v.5l.5-.2h.1V39l-.5.3Zm.3-4.1v.9h-.3l-.2-.3Zm-2,.4.3.6-.3.3h-.4Zm-2.1,2h.7l-.2.4-.4.3ZM9.4,40.7l.7-.5v.4l-.2.4Zm0,2.5.5-.9.2.2v.4Zm1.2,1.3v-.9h.4l.2.2Zm2.1-.4-.4-.6.4-.4H13Zm2-2h-.6l.2-.5.3-.2Zm.6-2.2v-.4l.3-.4.5.3Z" style="fill:#7f8c8d"/><path d="M12.7,27.2C6.6,30.8,1.6,39.4,1.6,46.4s5,10,11.1,6.5S23.8,40.7,23.8,33.6,18.8,23.7,12.7,27.2Zm0,23.5c-5.1,2.9-9.2.5-9.2-5.3s4.1-13.1,9.2-16,9.2-.5,9.2,5.3S17.8,47.7,12.7,50.7Z" style="fill:#1f2b38"/><path d="M12.7,28.6C7.2,31.8,2.8,39.4,2.8,45.7s4.4,8.9,9.9,5.7,9.9-10.8,9.9-17.1S18.1,25.5,12.7,28.6Zm0,22.1c-5.1,2.9-9.2.5-9.2-5.3s4.1-13.1,9.2-16,9.2-.5,9.2,5.3S17.8,47.7,12.7,50.7Z" style="fill:#bdc3c7"/><path d="M12.7,37.2a5.4,5.4,0,0,0-2.5,4.3c0,1.6,1.1,2.2,2.5,1.4a5.4,5.4,0,0,0,2.5-4.3C15.2,37,14.1,36.4,12.7,37.2Z" style="fill:#2c3e50"/><path d="M13,37.3a5.6,5.6,0,0,0-2.5,4.4c0,1.6,1.1,2.2,2.5,1.4a5.4,5.4,0,0,0,2.5-4.3C15.5,37.2,14.4,36.5,13,37.3Z" style="fill:#1c2833"/><path d="M12.7,39a2,2,0,0,0-.9,1.6c0,.5.4.7.9.5a2,2,0,0,0,.9-1.6A.6.6,0,0,0,12.7,39Z" style="fill:#ecf0f1"/><path d="M12.9,39.9a.5.5,0,0,1-.2.4c-.1.1-.2,0-.2-.1a.5.5,0,0,1,.2-.4C12.8,39.7,12.9,39.8,12.9,39.9Z" style="fill:#7f8c8d"/><path d="M58.1,13.9l-5,3.9-.9-.6.9-1.6,5-2,.2-.9-4.5,1.7L57,8.9l-.6-.3-3.5,6.2-1.3.5.2-1.6,4.5-5.3-.4-.6-4,4.7L52.6,7l-.8.3-.7,6.2-1.2,1.4-.6-1,2.3-6.6h-.7l-2.1,5.8-2-3.4-.7.8,2.3,3.9-.6,1.7H46.6l-.8-5.4-.7.6.7,4.7H41.7l-.3,1h4.5l.2,1.4-1.3.9-3.6-2-.5.9,3.2,1.9-4.5,3.4v.8l5-3.8,1,.5-1,1.6-5,2v1l4.5-1.8-3.2,5.5.5.3,3.6-6.2,1.3-.5-.2,1.6-4.5,5.3.3.6,4.1-4.7-.7,5.6.7-.3.8-6.3,1.2-1.3.6,1L46.1,31h.7l2-5.8,2.1,3.5.7-.9L49.3,24l.6-1.7h1.2l.7,5.3.8-.6-.7-4.7h4l.4-1H51.8l-.2-1.4,1.3-1L56.4,21l.6-1-3.2-1.8,4.5-3.4ZM52.2,16l-.5.9-.3-.2v-.4Zm-1.7,2.8-.2.5.3.2h.1l-.2.2h-.4l-.2.4-.4.3v.7h-.1l-.2-.3-.4.3h-.3l-.2.7h-.2v-.6h-.3l-.2-.2-.4.5H47v-.2l.4-.6h-.3v-.5l-.5.2h-.1v-.2l.5-.4v-.4l.3-.4-.4-.2v-.2h.6l.2-.5.3-.3v-.7h.2l.2.4.3-.4h.4l.2-.6v-.2h.1V17h.4l.2.3.4-.5h.2v.2l-.3.6h.2V18l.5-.2h.1v.2l-.5.3Zm.4-4.1v.9l-.4.2-.2-.3Zm-2.1.4.4.6-.4.4h-.3Zm-2,2h.6v.5l-.4.3Zm-1.3,2.7.7-.5v.4l-.3.4Zm0,2.5.5-.9.3.2v.5Zm1.3,1.3v-.9h.4v.3Zm2-.4-.3-.6.3-.3h.4Zm2.1-2h-.7l.2-.4.4-.3Zm.5-2.2v-.4l.3-.4.5.3Z" style="fill:#7f8c8d"/><path d="M48.8,6.4C42.7,9.9,37.7,18.5,37.7,25.6s5,9.9,11.1,6.4S59.9,19.8,59.9,12.8,55,2.8,48.8,6.4Zm0,23.4c-5,2.9-9.2.6-9.2-5.3s4.2-13,9.2-16,9.3-.5,9.3,5.3S53.9,26.9,48.8,29.8Z" style="fill:#1f2b38"/><path d="M48.8,7.8C43.4,10.9,39,18.6,39,24.9s4.4,8.8,9.8,5.7,9.9-10.8,9.9-17.1S54.3,4.6,48.8,7.8Zm0,22c-5,2.9-9.2.6-9.2-5.3s4.2-13,9.2-16,9.3-.5,9.3,5.3S53.9,26.9,48.8,29.8Z" style="fill:#bdc3c7"/><path d="M48.8,16.3a5.7,5.7,0,0,0-2.5,4.3A1.5,1.5,0,0,0,48.8,22a5.3,5.3,0,0,0,2.5-4.3C51.3,16.1,50.2,15.5,48.8,16.3Z" style="fill:#2c3e50"/><path d="M49,16.4a5.7,5.7,0,0,0-2.5,4.3c0,1.6,1.2,2.3,2.5,1.5a5.6,5.6,0,0,0,2.5-4.4C51.5,16.2,50.4,15.6,49,16.4Z" style="fill:#1c2833"/><path d="M49,18.3a1.7,1.7,0,0,0-.9,1.5c0,.6.4.8.9.5a2,2,0,0,0,.9-1.5C49.9,18.2,49.5,18,49,18.3Z" style="fill:#ecf0f1"/><path d="M49.2,19.2c0,.1,0,.3-.2.3s-.2,0-.2-.1L49,19C49.2,19,49.2,19,49.2,19.2Z" style="fill:#7f8c8d"/><polygon points="37.5 12.9 38.1 10.9 19.2 14 18.7 16.1 37.5 12.9" style="fill:#ffe372"/><path d="M33.3,29.9h.1l15.9-9.6a1.8,1.8,0,0,0,.7-1c.1-.4,0-.7-.2-.8L37.9,11.2c-.3-.2-.8.1-1.1.6s-.4,1.1,0,1.3l10.7,6.5L33.2,28.1a1.9,1.9,0,0,0-.7,1.4C32.6,30,32.9,30.1,33.3,29.9Z" style="fill:#ffe372"/><polygon points="18.9 19.1 20.5 13.3 19 13.5 17.4 19.3 18.9 19.1" style="fill:#ffe372"/><polygon points="32.9 29.8 34.1 27.9 19.8 15.4 18.5 17.3 32.9 29.8" style="fill:#ffe372"/><polygon points="34.1 28.6 38.6 10 37 10.3 32.6 28.9 34.1 28.6" style="fill:#ffe372"/><polygon points="38.4 13.4 38.9 11.4 20.1 14.5 19.6 16.6 38.4 13.4" style="fill:#f1c40f"/><polygon points="19.9 19.7 21.6 13.9 20.1 14.1 18.5 19.9 19.9 19.7" style="fill:#f1c40f"/><polygon points="33.7 30.3 35 28.4 20.6 15.9 19.4 17.8 33.7 30.3" style="fill:#f1c40f"/><polygon points="34.9 29.1 39.4 10.5 37.9 10.8 33.4 29.4 34.9 29.1" style="fill:#f1c40f"/><path d="M34.2,30.4h0l16-9.6a1.7,1.7,0,0,0,.6-1c.1-.4.1-.7-.1-.8l-12-7.2c-.3-.2-.8.1-1.1.6s-.3,1.1,0,1.3l10.7,6.5L34.1,28.6a1.6,1.6,0,0,0-.7,1.4C33.4,30.5,33.8,30.6,34.2,30.4Z" style="fill:#f1c40f"/><polygon points="15.7 39.6 20.2 25.4 17.5 25.3 12.9 39.4 15.7 39.6" style="fill:#f1c40f"/><path d="M43.5,0l3.9,2.2c0,1.5-3.7,1.9-5,2.7l-1.7,1-2-.2-2,2.1c-.3.2-1.4-.5-1.4-.9h0a1.1,1.1,0,0,1,.6-1Z" style="fill:#ff8376"/><path d="M39.1,9.9c.5.3.5.7,0,1a1.7,1.7,0,0,1-1.7,0c-.5-.3-.5-.7,0-1A2.5,2.5,0,0,1,39.1,9.9Z" style="fill:#fea"/><path d="M38.6,6l-1,4.3a.2.2,0,0,0,.1.4,1.1,1.1,0,0,0,1.1,0l.2-.2h0l1.1-4.8A2.1,2.1,0,0,1,38.6,6Z" style="fill:#2c3e50"/><path d="M47.4,2.2h0a4.2,4.2,0,0,1-1,3.1,2.1,2.1,0,0,1-1.2.4l-5.3.5L36.7,7.8c-.3.2-.6,0-.6-.4h0a1.3,1.3,0,0,1,.6-1Z" style="fill:#c0392b"/><path d="M34.1,25.7a7.8,7.8,0,0,0-3.6,6.2c0,2.3,1.6,3.3,3.6,2.1a7.8,7.8,0,0,0,3.6-6.3C37.7,25.4,36.1,24.5,34.1,25.7ZM31,30.5a3.8,3.8,0,0,1,1.1-2.2l.3.8-.2,1.1-.3,1.2-.8,1S30.5,32.1,31,30.5Zm1.2,3.6a1.1,1.1,0,0,1-.9-1.3l.9-.6.7.2.7.2.3.9A1.9,1.9,0,0,1,32.2,34.1Zm1-6.1-.7-.2A3.6,3.6,0,0,1,34.1,26c1.3-.7,1.6-.1,1.6-.1L35,27l-.9.5Zm2.9,3.8c-1.1,1.5-1.8,1.4-1.8,1.4l.3-1.1.7-1L36,30l.9-.5S37.1,30.3,36.1,31.8Zm.2-3L36,28l-.2-.8.3-1.2s.8-.4,1.2.8a2.8,2.8,0,0,1-.2,2.2Z" style="fill:#34495e"/><path d="M34.3,25.8A7.8,7.8,0,0,0,30.7,32c0,2.4,1.6,3.3,3.6,2.1a7.8,7.8,0,0,0,3.6-6.2C37.9,25.5,36.3,24.6,34.3,25.8Zm-3.2,4.8a3.5,3.5,0,0,1,1.2-2.2l.3.8-.2,1.1-.3,1.2-.8,1S30.7,32.2,31.1,30.6Zm1.2,3.6a1.1,1.1,0,0,1-.8-1.3l.9-.5h.7l.7.2.3.9A2,2,0,0,1,32.3,34.2Zm1.1-6.1-.7-.2a3.6,3.6,0,0,1,1.6-1.8c1.3-.7,1.6-.1,1.6-.1l-.7,1.1-.9.5Zm2.8,3.8c-1,1.5-1.7,1.4-1.7,1.4l.3-1.1.7-1,.7-1.1.9-.5S37.3,30.4,36.2,31.9Zm.3-3-.3-.8-.2-.8.3-1.2s.7-.4,1.1.8a3.1,3.1,0,0,1-.1,2.2Z" style="fill:#1f2b38"/><path d="M35.9,29a3.6,3.6,0,0,1-1.6,2.8c-.9.5-1.6.1-1.6-.9a3.6,3.6,0,0,1,1.6-2.8C35.2,27.6,35.9,28,35.9,29Z" style="fill:#131a21"/><path d="M35,29.5a1.6,1.6,0,0,1-.7,1.3c-.4.2-.7,0-.7-.4a1.6,1.6,0,0,1,.7-1.3C34.7,28.9,35,29.1,35,29.5Z" style="fill:#ecf0f1"/><path d="M36.1,36.4c-.1.1-.3,0-.4-.1l-1.8-6c-.1-.2.1-.5.3-.7a.2.2,0,0,1,.4-.1s.5.2.5.3l1.4,5.8a.6.6,0,0,1-.3.7A.1.1,0,0,1,36.1,36.4Z" style="fill:#7f8c8d"/><path d="M36.7,36.7c-.2.1-.3.1-.4-.1l-1.8-6a.7.7,0,0,1,.2-.7c.3-.2.5-.2.5,0l1.9,6a1.1,1.1,0,0,1-.3.7A.1.1,0,0,1,36.7,36.7Z" style="fill:#95a5a6"/><polygon points="37.5 35 35.4 36.2 38 37.7 40.1 36.5 37.5 35" style="fill:#4b6b8a"/><polygon points="38 37.7 35.4 36.2 35.4 37.2 38 38.7 38 37.7" style="fill:#131a21"/><polygon points="37.6 37.6 35.9 36.6 35.9 37.3 37.6 38.2 37.6 37.6" style="fill:#f1c40f"/><polygon points="40.1 36.5 38 37.7 38 38.7 40.1 37.5 40.1 36.5" style="fill:#2c3e50"/><path d="M19.4,13c-.6.3-.6.8,0,1.1a1.8,1.8,0,0,0,2,0,.6.6,0,0,0,0-1.1A2.3,2.3,0,0,0,19.4,13Z" style="fill:#fea"/><g style="isolation:isolate"><path d="M15.8,20.7l1.8-.4a1.3,1.3,0,0,0-.9.7l-1.8.5A1.4,1.4,0,0,1,15.8,20.7Z" style="fill:#f1c40f"/><path d="M15.1,19.3l1.9-.4a2.8,2.8,0,0,1,2.3.4l-1.8.4A3.4,3.4,0,0,0,15.1,19.3Z" style="fill:#f1c40f"/><path d="M17.5,19.7l1.8-.4c1.6.9,2.5,2.9,1.9,4.3l-1.8.5C20,22.6,19.1,20.7,17.5,19.7Z" style="fill:#f1c40f"/><path d="M17.5,19.7c1.6,1,2.5,2.9,1.9,4.4L18,23.3A1.8,1.8,0,0,0,17,21a1.4,1.4,0,0,0-2.1.5l-1.3-.8C14.1,19.3,15.9,18.8,17.5,19.7Z" style="fill:#f1c40f"/></g><ellipse cx="18.7" cy="19.3" rx="1.4" ry="0.8" style="fill:#f1c40f"/><ellipse cx="14.3" cy="39.4" rx="1.4" ry="0.8" style="fill:#f1c40f"/><ellipse cx="18.8" cy="25.3" rx="1.4" ry="0.8" style="fill:#fea"/><path d="M19.4,24.1l-.8-.4L18.2,25h-.1q0,.1.3.3a.9.9,0,0,0,1,0,.2.2,0,0,0,.2-.2h0l.4-1.3Z" style="fill:#2c3e50"/><path d="M18.9,18.5a2.3,2.3,0,0,0-1.2.2.6.6,0,0,0,0,1.1,1,1,0,0,0,.7.2Z" style="fill:#ffe372"/><path d="M19.4,13.4v-.2l1.1-3.3,1.7.9-.9,2.7h0l-.2.3a1.7,1.7,0,0,1-1.4,0,.5.5,0,0,1-.3-.4Z" style="fill:#19242e"/><path d="M10.2,3.4a.5.5,0,0,0-.6.1,1.7,1.7,0,0,0-.8,1.4.8.8,0,0,0,.2.5l4.8,2.7,1.1-2Z" style="fill:#e74c3c"/><path d="M8.9,4.4a.7.7,0,0,0-.1.5.8.8,0,0,0,.2.5l4.8,2.7.3-.7Z" style="fill:#c0392b"/><path d="M15.1,6.7A1.4,1.4,0,0,1,14.3,8a.5.5,0,0,1-.8-.4,1.8,1.8,0,0,1,.8-1.4C14.8,5.9,15.1,6.1,15.1,6.7Z" style="fill:#85271e"/><path d="M14.7,6.5h-.4a1.5,1.5,0,0,0-.4.9.4.4,0,0,0,.1.3l6.8,3.9.6-1.2Z" style="fill:#34495e"/><path d="M19.3,11.9v-.3l.5-1.2a2.1,2.1,0,0,0,1.2.3h1.6l-.6,1.5h0c0,.2-.1.3-.3.4a2.3,2.3,0,0,1-2,0A.7.7,0,0,1,19.3,11.9Z" style="fill:#2c3e50"/><path d="M20.3,9.8c-.6.3-.6.8,0,1.2a2.3,2.3,0,0,0,2,0c.5-.4.5-.9,0-1.2A2.3,2.3,0,0,0,20.3,9.8Z" style="fill:#4c6b8a"/><path d="M20.7,10.1c-.3.1-.3.4,0,.6a1.1,1.1,0,0,0,1.1,0c.3-.2.3-.5,0-.6A1.1,1.1,0,0,0,20.7,10.1Z" style="fill:#ecf0f1"/><path d="M22.5,11h-.4a1.6,1.6,0,0,0-.5.9l.2.3,6.7,3.9.7-1.2Z" style="fill:#34495e"/><path d="M28.4,13.9h-.5a1.7,1.7,0,0,0-.8,1.4.6.6,0,0,0,.2.5L32,18.6l1.2-1.9Z" style="fill:#e74c3c"/><path d="M27.2,14.9a.9.9,0,0,0-.1.5.6.6,0,0,0,.2.5L32,18.6l.4-.6Z" style="fill:#c0392b"/><path d="M33.4,17.2a2,2,0,0,1-.8,1.4c-.5.2-.8,0-.8-.5a1.7,1.7,0,0,1,.8-1.4A.5.5,0,0,1,33.4,17.2Z" style="fill:#85271e"/><path d="M33,17.9c-.6.7-1.2.4-.8-.4S33.4,17,33,17.9Z" style="fill:#f1c40f"/></g></g></svg>