<svg xmlns="http://www.w3.org/2000/svg" viewBox="0 0 96.8 69.1"><title>car</title><g id="Layer_2" data-name="Layer 2"><g id="Layer_1-2" data-name="Layer 1"><polygon points="91.9 31.1 81.5 25.1 88.1 23.1 94.2 26.1 91.9 31.1" style="fill:#d35400"/><polygon points="46.5 57.2 36.2 51.2 42.8 49.3 48.8 52.3 46.5 57.2" style="fill:#d35400"/><polygon points="43.3 54.3 36.6 50.4 29 65.2 35 68.7 43.3 54.3" style="fill:#19242e"/><polygon points="88.7 28.2 81.9 24.3 74.3 39.1 80.4 42.6 88.7 28.2" style="fill:#19242e"/><path d="M.2,53.8a.8.8,0,0,1-.2-.5V49.7a1.6,1.6,0,0,1,.8-1.3l.6-.4.3-1.7c.5-2.8,2.4-6.6,4.6-8.2L21.7,27.6l3.7-7A29.3,29.3,0,0,1,36.2,8.7L48.5,1.6c2.9-1.7,5.6-2,7.7-1L62.9,4,67,2.4h.8l26,15.1-2.7,4.7-9.8,3.8-42.1,26-8.1,7.4-4.9,9.4Z" style="fill:#f39c12"/><path d="M22,27l-.3.6L6.3,38.1a7.8,7.8,0,0,0-2.1,2.3L33.3,57.3l5.9-5.4,12.5-7.7Z" style="fill:#ffe166"/><path d="M0,53v.3a.8.8,0,0,0,.2.5l26,14.9.2-.4Z" style="fill:#d35400"/><path d="M1.4,48.1l-.6.3A1.6,1.6,0,0,0,0,49.7l27.7,16,1-1.9Z" style="fill:#ffeea6"/><path d="M35,55.7,5.6,38.7A13.5,13.5,0,0,0,2.4,44L30.6,60.3l.5-1Z" style="fill:#ffeea6"/><path d="M51.1.4a11.9,11.9,0,0,0-2.6,1.2L36.2,8.7a24,24,0,0,0-4.9,3.8L66,32.6l-2.5,4.3,17.8-11,8.4-3.2Z" style="fill:#ffe166"/><path d="M92,20.4l1.8-3L67.8,2.3H67L63.3,3.9Z" style="fill:#ffe166"/><polygon points="96.6 21.8 93.6 20.1 94.9 22.5 96.6 21.8" style="fill:#f39c12"/><g style="opacity:0.30000000000000004"><path d="M75.6,6.9a.9.9,0,0,0-.7,0L70.8,8.6,64.1,5.1c-2.1-1-4.9-.7-7.7,1L44.1,13.2c-4.2,2.4-8.1,6.7-10.9,11.9l-3.7,7L14.2,42.6c-2.3,1.6-4.1,5.4-4.6,8.2l-.3,1.8-.7.3a1.9,1.9,0,0,0-.7,1.3v3.6c0,.2,0,.4.2.5L7,57.6a.5.5,0,0,1-.3-.5V53.6a1.7,1.7,0,0,1,.8-1.3l.6-.4.3-1.7c.6-2.8,2.4-6.7,4.6-8.3L28.4,31.5l3.7-7.1A30.7,30.7,0,0,1,42.9,12.5L55.2,5.4c2.9-1.6,5.6-2,7.7-1l6.8,3.5,4-1.6a1.2,1.2,0,0,1,.8-.1Z" style="fill:#16a085"/><path d="M85.1,12.3h-.8l-4,1.6-6.7-3.4c-2.1-1.1-4.9-.7-7.7.9L53.5,18.6a30.3,30.3,0,0,0-10.8,12l-3.7,7L23.7,48.1c-2.3,1.6-4.1,5.4-4.6,8.2L18.8,58l-.7.4a1.7,1.7,0,0,0-.8,1.3v3.6c0,.2.1.4.3.4l-8.8-5a.8.8,0,0,1-.2-.5V54.7a1.9,1.9,0,0,1,.7-1.4L10,53l.3-1.7c.5-2.9,2.3-6.7,4.6-8.3L30.2,32.5l3.7-7c2.8-5.2,6.7-9.5,10.9-11.9L57.1,6.5c2.8-1.7,5.6-2,7.7-1L71.5,9l4.1-1.6a.6.6,0,0,1,.7-.1Z" style="fill:#16a085"/><path d="M87.1,13.5a.8.8,0,0,0-.8.1l-4,1.6-6.7-3.5c-2.1-1-4.9-.7-7.7,1L55.5,19.8c-4.1,2.4-8,6.7-10.8,11.9l-3.7,7L25.7,49.2c-2.3,1.6-4.1,5.4-4.6,8.3l-.3,1.7-.7.4a1.6,1.6,0,0,0-.7,1.3v3.5c0,.3,0,.4.2.5l-1.2-.6a.8.8,0,0,1-.2-.5V60.2a1.7,1.7,0,0,1,.8-1.3l.6-.4.3-1.7c.5-2.8,2.4-6.6,4.6-8.2L39.9,38.1l3.7-7c2.7-5.2,6.7-9.6,10.8-11.9L66.7,12c2.9-1.6,5.6-2,7.7-.9l6.7,3.4,4.1-1.6H86Z" style="fill:#16a085"/></g><path d="M78.6,38.7c0,3.8,2.6,5.3,5.9,3.4a13.1,13.1,0,0,0,5.9-10.2c0-3.7-2.7-5.2-5.9-3.4A13,13,0,0,0,78.6,38.7Z" style="fill:#34495e"/><path d="M84.5,39.5a8.1,8.1,0,0,0,3.6-6.2c0-2.3-1.6-3.3-3.6-2.1a7.8,7.8,0,0,0-3.6,6.2C80.9,39.7,82.5,40.6,84.5,39.5Z" style="fill:#ecf0f1"/><path d="M84.5,36.9a3.2,3.2,0,0,0,1.3-2.3c0-.9-.6-1.2-1.3-.8a2.9,2.9,0,0,0-1.4,2.3C83.1,36.9,83.7,37.3,84.5,36.9Z" style="fill:#34495e"/><path d="M33.3,64.9c0,3.7,2.6,5.3,5.9,3.4A13,13,0,0,0,45,58.1c0-3.7-2.6-5.3-5.8-3.4A12.9,12.9,0,0,0,33.3,64.9Z" style="fill:#34495e"/><path d="M39.2,65.7a8.4,8.4,0,0,0,3.6-6.3c0-2.3-1.7-3.2-3.6-2.1a8.2,8.2,0,0,0-3.7,6.3C35.5,65.9,37.2,66.8,39.2,65.7Z" style="fill:#ecf0f1"/><path d="M39.2,63a2.9,2.9,0,0,0,1.3-2.3c0-.8-.6-1.2-1.3-.7a2.7,2.7,0,0,0-1.4,2.3C37.8,63.1,38.4,63.5,39.2,63Z" style="fill:#34495e"/><path d="M27.4,63l.3-1.7c.5-2.8,2.3-6.7,4.6-8.2L47.6,42.6l3.7-7a30.3,30.3,0,0,1,10.8-12l12.4-7.1c2.8-1.6,5.6-2,7.7-1L88.9,19l4-1.6a.9.9,0,0,1,1.4.7l.6,4.4,1.1-.6a.5.5,0,0,1,.8.4v5a2,2,0,0,1-.8,1.4l-4.1,2.4c0-4.7-3.3-6.7-7.4-4.3s-7.4,8.1-7.4,12.8L46.5,57.2c0-4.7-3.3-6.6-7.3-4.2s-7.4,8.1-7.4,12.8l-5.1,2.9a.5.5,0,0,1-.8-.5V64.7a1.7,1.7,0,0,1,.8-1.3Z" style="fill:#f1c40f"/><path d="M78.2,34.4,45.4,53.3a3.5,3.5,0,0,0-1.9-1.2L80.1,31A16.3,16.3,0,0,0,78.2,34.4Z" style="fill:#ffe475"/><path d="M90.7,27.2a3.8,3.8,0,0,0-1.8-1.3l6-3.4h0l1.1-.6a.5.5,0,0,1,.8.4v1.4Z" style="fill:#ffe475"/><path d="M32.9,60.5,26,64.6a1.4,1.4,0,0,1,.7-1.2l.7-.4.3-1.7h0l7.1-4.1A15.7,15.7,0,0,0,32.9,60.5Z" style="fill:#ffe475"/><path d="M77.1,38.6v1L46.5,57.2v-.9Z" style="fill:#e67e22"/><path d="M96.8,27.3h0a2,2,0,0,1-.8,1.4l-4.1,2.4a3.1,3.1,0,0,0-.1-1Z" style="fill:#e67e22"/><path d="M31.8,64.8v1l-5.1,2.9a.5.5,0,0,1-.8-.5h0Z" style="fill:#e67e22"/><path d="M87,20.3,48.7,42.5s4.2-9.3,7.4-13.2A25.2,25.2,0,0,1,64,23.5l9.8-5.7s3.2-2,4.9-1.5S87,20.3,87,20.3Z" style="fill:#34495e"/><path d="M49.6,41.7l15.6-9V23.3l-4,2.3a22.2,22.2,0,0,0-8.4,9.6Z" style="fill:#2980b9"/><path d="M67.2,31.5V22.1l7.4-4.3c1.5-.9,2.9-.6,3.5.5l2.8,5.3Z" style="fill:#2980b9"/><polygon points="78.7 17 82.4 22.8 86 20.7 78.7 17" style="fill:#2980b9"/><path d="M50.6,53.8l14.8-8.5a2.7,2.7,0,0,0,1.1-2V32.2l-.7.4V43.7a.8.8,0,0,1-.4.7L50.6,52.9c-.7.4-1.2.1-1.2-.6V42.1l-.7.4V52.7C48.7,53.9,49.5,54.4,50.6,53.8Z" style="fill:#e67e22"/><path d="M66.9,44.4,76.3,39v-.5a15.8,15.8,0,0,1,1.5-5.8,15.5,15.5,0,0,1,3.9-5.4l.3-.2V23.2l-.7.5v3.1a18.3,18.3,0,0,0-5.7,11.7l-8.7,5c-.2.1-.4,0-.4-.2V32.6l-.7.4V43.7C65.8,44.4,66.3,44.7,66.9,44.4Z" style="fill:#e67e22"/><polygon points="77.1 28.5 80.3 26.7 80.3 25.4 77.1 27.3 77.1 28.5" style="fill:#34495e"/><polygon points="60.5 38.1 63.7 36.3 63.7 35 60.5 36.9 60.5 38.1" style="fill:#34495e"/><path d="M33,16.6,51,27a4.2,4.2,0,0,1,1.6,5.9c-.8,1.1-.6.9-1.4,2.1s-1.6,3-2.3,4.2A2,2,0,0,1,46,40L24.4,27.5a2.1,2.1,0,0,1-1-2.5c.5-1.1.8-2,1.9-4.1a16.3,16.3,0,0,1,2.3-3.5A4.3,4.3,0,0,1,33,16.6Z" style="fill:#2980b9"/><path d="M52.7,32.7A4.1,4.1,0,0,0,51,27L33,16.6a4.3,4.3,0,0,0-5.4.8l-.4.6Z" style="fill:#34495e"/><polygon points="9.3 55.5 9.2 58 16.4 62.1 16.5 59.7 9.3 55.5" style="fill:#ecf0f1"/><path d="M6.6,46.8c-.3,1.1-1.4,1.4-2.5.8a3,3,0,0,1-1.5-3,1.6,1.6,0,0,1,2.5-.7A2.7,2.7,0,0,1,6.6,46.8Z" style="fill:#34495e"/><path d="M6.1,46.5a1.2,1.2,0,0,1-1.9.6,2,2,0,0,1-1-2.2A1.2,1.2,0,0,1,5,44.3,2.2,2.2,0,0,1,6.1,46.5Z" style="fill:#ecf0f1"/><path d="M9.4,48.5a1.2,1.2,0,0,1-1.9.6,2.4,2.4,0,0,1-1.1-2.4c.2-.8,1-1.1,1.9-.6A2.4,2.4,0,0,1,9.4,48.5Z" style="fill:#34495e"/><path d="M9,48.3a.9.9,0,0,1-1.4.4A1.5,1.5,0,0,1,6.8,47c.1-.6.8-.8,1.4-.5A1.8,1.8,0,0,1,9,48.3Z" style="fill:#ecf0f1"/><path d="M23.9,56.9a2.8,2.8,0,0,0,1.4,3c1.1.6,2.3.2,2.5-.8a2.7,2.7,0,0,0-1.4-3A1.6,1.6,0,0,0,23.9,56.9Z" style="fill:#34495e"/><path d="M24.4,57.2a2.1,2.1,0,0,0,1.1,2.2c.8.4,1.6.2,1.8-.6a2.1,2.1,0,0,0-1.1-2.2C25.4,56.2,24.6,56.4,24.4,57.2Z" style="fill:#ecf0f1"/><path d="M21.1,55.2a2.4,2.4,0,0,0,1.1,2.4,1.2,1.2,0,0,0,1.9-.6A2.4,2.4,0,0,0,23,54.6,1.2,1.2,0,0,0,21.1,55.2Z" style="fill:#34495e"/><path d="M21.5,55.5a1.5,1.5,0,0,0,.8,1.7c.6.4,1.3.2,1.4-.4a1.7,1.7,0,0,0-.8-1.8A.9.9,0,0,0,21.5,55.5Z" style="fill:#ecf0f1"/><path d="M21,55.2c0,1.2-2.9,1.2-6.4-.8s-5.7-5-5.1-5.9,3.2.2,6.1,1.9S21.1,53.9,21,55.2Z" style="fill:#ecf0f1"/><path d="M14.7,53.8a12.5,12.5,0,0,1-4.5-4.4c-.2-.3-.2-.4-.2-.4s.5-.7,5.5,2.1,4.9,3.8,4.9,3.9l-.3.2c-.9.3-3-.1-5.3-1.4Z" style="fill:#263545"/><path d="M19.4,53.8c-.1-.2-.3-.3-.5-.5l-.5,1.9H19Z" style="fill:#ecf0f1"/><path d="M15.2,54l.6.3.7-2.6-.6-.4Z" style="fill:#ecf0f1"/><path d="M18,52.7l-.6-.4-.6,2.4.6.2Z" style="fill:#ecf0f1"/><path d="M15,50.8l-.6-.3-.7,2.6.6.4Z" style="fill:#ecf0f1"/><path d="M13.4,50l-.5-.3L12.3,52l.5.4Z" style="fill:#ecf0f1"/><path d="M10.9,50.5l.5.6.5-1.8-.6-.2Z" style="fill:#ecf0f1"/></g></g></svg>