<svg xmlns="http://www.w3.org/2000/svg" xmlns:xlink="http://www.w3.org/1999/xlink" viewBox="0 0 84.6 67"><defs><linearGradient id="Áåçûìÿííûé_ãðàäèåíò_22" x1="61.03" y1="22.63" x2="62.97" y2="22.63" gradientUnits="userSpaceOnUse"><stop offset="0" stop-color="#377adc"/><stop offset="1" stop-color="#408eff"/></linearGradient><linearGradient id="Áåçûìÿííûé_ãðàäèåíò_1281" x1="34.83" y1="45.71" x2="31.53" y2="51.42" gradientUnits="userSpaceOnUse"><stop offset="0" stop-color="#408eff"/><stop offset="1" stop-color="#326fc7"/></linearGradient><linearGradient id="Áåçûìÿííûé_ãðàäèåíò_11" x1="18.46" y1="60.31" x2="53.54" y2="21.39" gradientUnits="userSpaceOnUse"><stop offset="0.06" stop-color="#2e66b7"/><stop offset="1" stop-color="#408eff"/></linearGradient><linearGradient id="Áåçûìÿííûé_ãðàäèåíò_29" x1="1.14" y1="43.33" x2="35.34" y2="5.4" gradientUnits="userSpaceOnUse"><stop offset="0" stop-color="#19417b"/><stop offset="0.18" stop-color="#1f529e"/><stop offset="0.44" stop-color="#2567c8"/><stop offset="0.67" stop-color="#2a76e6"/><stop offset="0.86" stop-color="#2d80f8"/><stop offset="1" stop-color="#2e83ff"/></linearGradient><linearGradient id="Áåçûìÿííûé_ãðàäèåíò_29-2" x1="59.54" y1="37.24" x2="73.81" y2="51.13" xlink:href="#Áåçûìÿííûé_ãðàäèåíò_29"/><linearGradient id="Áåçûìÿííûé_ãðàäèåíò_18" x1="67.4" y1="38.38" x2="78.98" y2="38.38" gradientUnits="userSpaceOnUse"><stop offset="0" stop-color="#102441"/><stop offset="0.14" stop-color="#1a3a68"/><stop offset="0.36" stop-color="#27589d"/><stop offset="0.56" stop-color="#326fc8"/><stop offset="0.74" stop-color="#3a80e6"/><stop offset="0.89" stop-color="#3e8af8"/><stop offset="1" stop-color="#408eff"/></linearGradient><linearGradient id="Áåçûìÿííûé_ãðàäèåíò_22-2" x1="33.64" y1="36.89" x2="38.62" y2="36.89" xlink:href="#Áåçûìÿííûé_ãðàäèåíò_22"/></defs><title>h</title><g style="isolation:isolate"><g id="Layer_2" data-name="Layer 2"><g id="_0" data-name="0"><g id="_9" data-name="9"><path d="M62,21.1c.2-.2.5-.5.8-.4l.2.2a8.6,8.6,0,0,1,.3,1.7,5.1,5.1,0,0,1-.3,2.2,1.2,1.2,0,0,1-.5.5,1,1,0,0,1-1.2-.7,2.5,2.5,0,0,1-.2-1.7A10.1,10.1,0,0,1,62,21.1Z" style="fill:#316dc3"/><path d="M63,20.8h-.2c-.3-.1-.6.2-.8.4a10.1,10.1,0,0,0-.9,1.8,2.5,2.5,0,0,0,.2,1.7A8.8,8.8,0,0,0,63,20.8Z" style="opacity:0.7000000000000001;fill:url(#Áåçûìÿííûé_ãðàäèåíò_22)"/><polygon points="56.7 49.9 43 57.8 39.8 53 41.4 49.5 46.2 46.3 56.7 49.9" style="fill:#26231f"/><path d="M6.8,23.5,2,26.8l-.2.3a6.6,6.6,0,0,0,.4,6.1l1.2,1.9,13.9-8Z" style="fill:#26231f"/><g id="Axonometric_Cylinder" data-name="Axonometric Cylinder"><path d="M52.3,52.2c-1.4-.8-2.6-.9-3.5-.3l-3,1.7,6.9,11.7,3-1.7a3.5,3.5,0,0,0,1.4-3.1A10.6,10.6,0,0,0,52.3,52.2Z" style="fill:#26231f"/><path id="Cylinder_face" data-name="Cylinder face" d="M54.1,62.2c0,3.1-2.2,4.4-4.9,2.8a10.6,10.6,0,0,1-4.8-8.3c0-3.1,2.2-4.3,4.8-2.8A10.6,10.6,0,0,1,54.1,62.2Z" style="fill:#3f3932"/></g><g style="isolation:isolate"><path d="M49.2,63.4a7.1,7.1,0,0,1-3.3-5.7c-.1-2.1,1.4-3,3.2-2a7.4,7.4,0,0,1,3.4,5.7C52.5,63.5,51.1,64.4,49.2,63.4Z" style="fill:#d8d8d8"/><path d="M49.2,62.9A6.8,6.8,0,0,1,46.3,58c0-1.9,1.3-2.6,2.8-1.8A6.2,6.2,0,0,1,52,61.1C52.1,63,50.8,63.8,49.2,62.9Z" style="fill:#a8a8a8"/><path d="M49.4,61.3a3.3,3.3,0,0,1-1.7-2.7c0-1.1.7-1.5,1.6-1a3.4,3.4,0,0,1,1.6,2.8C51,61.4,50.3,61.8,49.4,61.3Z" style="fill:#d8d8d8"/><path d="M51.1,58.5a3.5,3.5,0,0,0-1.6-1.6c-1.1-.7-2-.1-2,1.3a4.9,4.9,0,0,0,2.1,3.6c1.1.6,2,.1,2.1-1.2h0A3.9,3.9,0,0,0,51.1,58.5Zm-.2,2c0,.9-.7,1.3-1.5.8a3.3,3.3,0,0,1-1.7-2.7c0-1.1.7-1.5,1.6-1a2.6,2.6,0,0,1,1.2,1.3l.3.7a2.2,2.2,0,0,1,.1.8Z" style="fill:#bebebe"/></g><g id="Axonometric_Cylinder-2" data-name="Axonometric Cylinder"><path d="M13.1,29.6a3.1,3.1,0,0,0-3.4-.3L6.7,31l6.8,11.8L16.6,41a3.5,3.5,0,0,0,1.3-3.1A10.5,10.5,0,0,0,13.1,29.6Z" style="fill:#26231f"/><path id="Cylinder_face-2" data-name="Cylinder face" d="M14.9,39.7c0,3-2.1,4.3-4.8,2.7a10.6,10.6,0,0,1-4.8-8.3c0-3.1,2.2-4.3,4.8-2.8A10.7,10.7,0,0,1,14.9,39.7Z" style="fill:#3f3932"/></g><g style="isolation:isolate"><path d="M10.1,40.8a7.5,7.5,0,0,1-3.4-5.7c0-2.1,1.5-3,3.3-2a7.6,7.6,0,0,1,3.4,5.7C13.4,40.9,11.9,41.9,10.1,40.8Z" style="fill:#d8d8d8"/><path d="M10.1,40.3a6.2,6.2,0,0,1-2.9-4.9c0-1.8,1.2-2.6,2.8-1.8a6.2,6.2,0,0,1,2.9,4.9C12.9,40.4,11.7,41.2,10.1,40.3Z" style="fill:#a8a8a8"/><path d="M10.2,38.8A3.9,3.9,0,0,1,8.6,36c0-1.1.7-1.5,1.6-1a3.4,3.4,0,0,1,1.6,2.8C11.8,38.8,11.1,39.3,10.2,38.8Z" style="fill:#d8d8d8"/><path d="M12,35.9a4.1,4.1,0,0,0-1.6-1.6c-1.1-.7-2.1-.1-2,1.3a4.6,4.6,0,0,0,2.1,3.6,1.3,1.3,0,0,0,2.1-1.1v-.2A8.9,8.9,0,0,0,12,35.9Zm-.2,2c0,.9-.7,1.3-1.6.9A3.9,3.9,0,0,1,8.6,36c0-1.1.7-1.5,1.6-1a3,3,0,0,1,1.2,1.3l.3.7a2.2,2.2,0,0,1,.1.8Z" style="fill:#bebebe"/></g><path d="M82,40.2a28,28,0,0,0-6.8-6.5A130.3,130.3,0,0,1,59.8,21.6c-2.1-1.7-5.9-5.4-8.1-7S32.4,3.2,27.4.4A2.7,2.7,0,0,0,24.8.3C20.5,2.4,9.4,8.7,7.1,10.5l-1,1.3a20.1,20.1,0,0,1-3.6,4.8,4.8,4.8,0,0,0-2.1,3,14.8,14.8,0,0,0-.1,2.1V30a3.7,3.7,0,0,0,.4,1.8,11.6,11.6,0,0,0,2.7,3.3c.1-4.9,1.6-7.9,6.3-5.2S16,37.5,16,42.5L43,57.8c0-4.8,1.6-7.8,6.3-5.1s6.2,7.4,6.3,12.2c1.6,1,.8.5,1.4.7a11.1,11.1,0,0,0,3.6,1.3c5.8.9,11.7-2.2,16.4-5.3a21.8,21.8,0,0,0,6.8-6,4.8,4.8,0,0,0,.8-2.8C84.6,50.2,84.5,44.2,82,40.2Z" style="fill:#2e66b7"/><path d="M69.4,65.7a17.7,17.7,0,0,1-8.8,1.2A11.1,11.1,0,0,1,57,65.6c-.6-.2.2.3-1.4-.7A16.4,16.4,0,0,0,53,56.2C58,62.7,63.4,66,69.4,65.7ZM.3,25.7V30a3.7,3.7,0,0,0,.4,1.8,11.6,11.6,0,0,0,2.7,3.3c0-3.2.7-5.6,2.5-6.1Zm13.1,7.7A15.9,15.9,0,0,1,16,42.5L43,57.8c0-3.1.7-5.4,2.4-6Z" style="opacity:0.30000000000000004;fill:url(#Áåçûìÿííûé_ãðàäèåíò_1281)"/><path d="M79.4,54.7c2.9-2.4,4.8-5,4.8-7.8A17.7,17.7,0,0,0,82,40.2a28,28,0,0,0-6.8-6.5A130.3,130.3,0,0,1,59.8,21.6c-2.1-1.7-5.9-5.4-8.1-7L27.4.4A2.7,2.7,0,0,0,24.8.3C20.4,2.4,9.1,8.9,7.1,10.5c3,1.5,8.5,4.7,14,7.8S32.7,24.7,33.8,26c2.3,2.9,10.5,15.8,10.5,15.8,2.8,2.8,9.4,8.5,12.3,11.2a16.4,16.4,0,0,1,2.8,5.8c.1.8,6.4,2.4,14.2-.8A22.3,22.3,0,0,0,79.4,54.7Z" style="opacity:0.7000000000000001;fill:url(#Áåçûìÿííûé_ãðàäèåíò_11)"/><path d="M50.6,14.6a.6.6,0,0,0-.1-.8C46.4,11.3,31.7,2.9,27.4.4A2.7,2.7,0,0,0,24.8.3C20.4,2.4,9.1,8.9,7.1,10.5c8.5,4.8,18.5,10.1,24.3,13.8a2.4,2.4,0,0,0,2,.2C36.8,23.1,46.9,18.8,50.6,14.6Z" style="opacity:0.4;mix-blend-mode:screen;fill:url(#Áåçûìÿííûé_ãðàäèåíò_29)"/><path d="M57.7,54.1C70.8,56.9,83.8,45.3,82.4,41c-.1-.3-.3-.5-.4-.8a28,28,0,0,0-6.8-6.5c-3.1-2.1-5.3-3.7-7.5-5.4C59.3,39.6,44.3,41.8,44.3,41.8c2.8,2.8,9.4,8.5,12.3,11.2A5.7,5.7,0,0,0,57.7,54.1Z" style="opacity:0.6000000000000001;mix-blend-mode:screen;fill:url(#Áåçûìÿííûé_ãðàäèåíò_29-2)"/><path d="M46.4,46.8l-5.5-8.4h-.1l5.4,8.4v4.8h.2V46.9Z" style="fill:#2e66b7;opacity:0.2;mix-blend-mode:multiply"/><path d="M11.3,19.7a.1.1,0,0,0-.1.1A76.1,76.1,0,0,0,9.8,30H10a94.3,94.3,0,0,1,1.3-10.2C11.4,19.8,11.3,19.8,11.3,19.7Z" style="fill:#2e66b7;opacity:0.2;mix-blend-mode:multiply"/><path d="M27.2,24.1l-.2-.2a148.2,148.2,0,0,0-1.6,22.5L16,40.9v.3l9.5,5.4L43,56.8v-.3l-17.4-10A147.7,147.7,0,0,1,27.2,24.1Z" style="fill:#2e66b7;opacity:0.2;mix-blend-mode:multiply"/><path d="M49.6,40.7c6.1-1.6,12-5.4,17-10.2a1.2,1.2,0,0,0-.1-1.9L51.1,15.2c-3.5,3.3-9.3,6.5-16.6,9.6,3.6,6.3,7.9,12.2,11.2,15.1A3.8,3.8,0,0,0,49.6,40.7Z" style="fill:#282523"/><path d="M46.7,38.3h-.5a4.8,4.8,0,0,1-2.9-1.9c-1.9-2.4-5.9-7.5-7.6-10.3a.7.7,0,0,1,.3-.9c6.8-3,11.8-5.8,15-8.6a.7.7,0,0,1,.9,0L64,27.1a.8.8,0,0,1,.3.7.7.7,0,0,1-.3.6c-5.4,5.1-10.5,8.2-16.2,9.8Z" style="fill:#35312d"/><path d="M33.9,27.7a9.2,9.2,0,0,0-3.2-3C28.6,23.5,11.8,13.6,9.9,13.1s-2.8,3.1-4.3,6.6c0,0,31.9,18.5,36,20.7.2.2.6-.1.4-.3C40.8,38.1,36.1,31.1,33.9,27.7Z" style="fill:#282523"/><path d="M3.3,18.1c0,.1-.1.2-.2.1S1.8,17.4,1.9,17s4.3-5.7,4.7-5.8,1.1.5.9.8S5.4,14.9,3.3,18.1Z" style="fill:#35312d"/><path d="M68.5,54.7c-.7-.5-4.8-.6-11.2-2.7-1.1-.1-.5,2.4.1,3.5s.5,1,.8,1.4l.7.5a3.8,3.8,0,0,0,1,.3,24.7,24.7,0,0,0,9,0C69.8,57.4,69.1,55.2,68.5,54.7Z" style="fill:#f0fdff"/><path d="M58.3,56.7c-.6-1.5-1.3-3.1-1-4.7s-1.8-.2-1.9.5,1.9,3.8,3.1,4.7Z" style="fill:#e9751c"/><path d="M82.1,42.7a1.7,1.7,0,0,0,0-1,5.1,5.1,0,0,0-.7-2.3,7,7,0,0,1,1.5,2.4,6.3,6.3,0,0,1,1,2.9c-.1,1.3-.3,2.4-.7,2.6s-.5-.4-.7-.7S82.1,44.1,82.1,42.7Z" style="fill:#f0fdff"/><path d="M70.6,54.1c.3.9,1.3,3.2,1.9,3,2.8-.6,8.5-4.7,9.3-6.3s-.8-4-1.1-4.1A21.9,21.9,0,0,1,75.6,51C73.1,52.6,70.5,53.7,70.6,54.1Z" style="fill:#2e66b7"/><path d="M75.6,51a39.9,39.9,0,0,1-3.9,2.1c-.7.4-1.2.6-1.1,1A7.5,7.5,0,0,0,72.2,57c2.8-.6,8.4-4.7,9.2-6.3s-.5-2.9-.9-3.8A22.2,22.2,0,0,1,75.6,51Z" style="fill:#35312d"/><path d="M58.6,47.1A54.8,54.8,0,0,1,52,41.6a20.4,20.4,0,0,0,1.5,2,25.2,25.2,0,0,0,4.4,3.9,23.1,23.1,0,0,0,5.7,3.1,14.6,14.6,0,0,0,3,.9l-2.7-1.2A53.4,53.4,0,0,1,58.6,47.1Z" style="fill:#2e66b7;opacity:0.30000000000000004"/><g style="opacity:0.6000000000000001;mix-blend-mode:screen"><path d="M70,33.9l-2.6-1.4A52.4,52.4,0,0,1,74.1,38a31.2,31.2,0,0,1,3.6,4.2,14.7,14.7,0,0,1,1.3,2,6.7,6.7,0,0,0-.8-2.2,15.4,15.4,0,0,0-3.4-4.4A25.8,25.8,0,0,0,70,33.9Z" style="fill:url(#Áåçûìÿííûé_ãðàäèåíò_18)"/></g><path d="M42.3,13.4,31.6,19.6a3,3,0,0,1-2.3,0l-4.2-2.5c-.6-.3-.6-.9,0-1.3L35.8,9.6a3,3,0,0,1,2.3,0l4.2,2.5C42.9,12.4,42.9,13,42.3,13.4Z" style="fill:#282523"/><path d="M41.8,13.7,31.6,19.5a2.2,2.2,0,0,1-2.2,0l-3.7-2.1c-.6-.4-.6-.9,0-1.3l10.1-5.9a2.8,2.8,0,0,1,2.2,0l3.8,2.2A.8.8,0,0,1,41.8,13.7Z" style="fill:#35312d"/><path d="M30.1,36.9l-2.6-1.5a.9.9,0,0,1-.3-.5v-.3c0-.2.2-.2.3-.1L30.1,36c.2,0,.3.2.3.4v.4C30.4,36.9,30.3,36.9,30.1,36.9Z" style="fill:#3677d6"/><path d="M14.5,27.9l-2.6-1.5a.8.8,0,0,1-.2-.5v-.3c0-.2.1-.2.2-.1L14.5,27c.2,0,.3.2.3.4v.4C14.8,27.9,14.7,28,14.5,27.9Z" style="fill:#3677d6"/><path d="M33.8,37.3a1.9,1.9,0,0,0,.7,2.3h.4c1.4.2,3.3.2,4-.6a.6.6,0,0,0,.1-.7c-.1-.4-.6-2.2-1-2.4A12.8,12.8,0,0,0,33.8,37.3Z" style="fill:#316dc3"/><path d="M38.6,37.2c-.2-.6-.4-1.1-.6-1.2a12.8,12.8,0,0,0-4.2,1.3l-.2.4A10.5,10.5,0,0,0,38.6,37.2Z" style="opacity:0.7000000000000001;fill:url(#Áåçûìÿííûé_ãðàäèåíò_22-2)"/><path d="M40.5,38.5l-1.6-.3c-.7-.1-1.7,1.2-1.4,1.5l3.3.3C41.3,40.1,41.2,38.6,40.5,38.5Z" style="fill:#282523"/><path d="M2.5,30.9l-.9-.5a.5.5,0,0,1-.3-.4h0c0-.1.1-.2.3-.1l.9.5a.8.8,0,0,1,.2.4h0C2.7,30.9,2.6,31,2.5,30.9Z" style="fill:#e9751c"/><path d="M42.4,54l-.9-.6c-.1,0-.2-.2-.2-.4h0c0-.1.1-.1.2-.1l.9.6c.2,0,.3.2.3.4h0C42.7,54,42.6,54,42.4,54Z" style="fill:#e9751c"/><path d="M.3,20.7a10.3,10.3,0,0,0,0,5.1c.7.2.9-2.8,1-4a.7.7,0,0,0-.4-.7Z" style="fill:#911"/><polygon points="80.6 55.5 75.2 59.1 75.2 61.1 80.6 57.5 80.6 55.5" style="fill:#d8d8d8"/><path d="M61.9,65.6a16.5,16.5,0,0,0,6.6-.6c.4-.2.3-.8.3-1.3s-.2-.4-.5-.4a17.2,17.2,0,0,1-6.3-.8.4.4,0,0,0-.6.4V65A.6.6,0,0,0,61.9,65.6Z" style="fill:#35312d"/><path d="M84.5,49.1a20.2,20.2,0,0,1-.5,2.6c0,.2-.1.5-.1.8v1.6c0,.2.1.2.1.1a4.7,4.7,0,0,0,.6-1.5h0C84.6,51.7,84.6,50.5,84.5,49.1Z" style="fill:#35312d"/></g></g></g></g></svg>