<svg xmlns="http://www.w3.org/2000/svg" xmlns:xlink="http://www.w3.org/1999/xlink" viewBox="0 0 83.9 71.1"><defs><linearGradient id="Áåçûìÿííûé_ãðàäèåíò_549" x1="42.65" y1="15.7" x2="56.19" y2="15.7" gradientUnits="userSpaceOnUse"><stop offset="0" stop-color="#846918"/><stop offset="0.14" stop-color="#9e7d1c"/><stop offset="0.41" stop-color="#c89d21"/><stop offset="0.65" stop-color="#e6b526"/><stop offset="0.85" stop-color="#f8c328"/><stop offset="1" stop-color="#ffc829"/></linearGradient></defs><title>m</title><g style="isolation:isolate"><g id="Layer_2" data-name="Layer 2"><g id="_0" data-name="0"><g id="_7" data-name="7"><path d="M14.9,21.2l16.3,3.2a1.2,1.2,0,0,1,.7.7L35,35.9a1,1,0,0,1-.7,1.2,1.4,1.4,0,0,1-.9-.1l-19-13.2c-.2-.1-.3-.2-.3-.4V21.9a.6.6,0,0,1,.6-.7h.2Zm.4,1.5v.7l-.2-.5L34.5,35.3,33,36.4,30,25.7l.8.7Z" style="fill:#4f4d4c"/><path d="M61.2,17.1,73.5,55.3a.6.6,0,0,1-.4.8.7.7,0,0,1-.8-.4L59.1,17.8a1,1,0,0,1,.7-1.4,1.1,1.1,0,0,1,1.4.7Z" style="fill:#333"/><path d="M15.1,4c-.9-.1-2.1,1.9-1.4,2.7s2.8.9,2.9-.9a2.2,2.2,0,0,0-1-1.7Z" style="fill:#333"/><path d="M15.2,21a1.2,1.2,0,0,0-1.3-.1l-1,.6a1.3,1.3,0,0,0-.5,1.1,4.1,4.1,0,0,0,1.8,3.2,1.4,1.4,0,0,0,1.1.1l1.2-.6a1.4,1.4,0,0,0,.5-1.2A4,4,0,0,0,15.2,21Z" style="fill:#a0a0a0"/><g style="isolation:isolate"><path d="M21.9,14.3h0c-2.3-2.7-8-8.5-14.4-5.7,2.1-.8,4.7-.3,7.3,1.2a19.1,19.1,0,0,1,5.7,5.1c5.5,6.8,7.4,15.9,4.2,20.4a4.7,4.7,0,0,1-1,1C29.6,31.8,27.6,21.8,21.9,14.3Z" style="fill:#383838"/><path d="M24.2,21a22.6,22.6,0,0,0-3.7-6.1l-.7-.9a21.1,21.1,0,0,0-5-4.2c-3-1.7-6-2.1-8.2-.8l-.4.2c2.2-1.2,5.2-.9,8.2.8a19.5,19.5,0,0,1,5,4.3l.7.8a27.6,27.6,0,0,1,3.7,6.1c2.4,5.5,2.8,11.1.5,14.3a4.8,4.8,0,0,1-1.8,1.7l.4-.2a5.8,5.8,0,0,0,1.8-1.7C27,32.1,26.7,26.4,24.2,21Z" style="fill:#4f4f4f"/><path d="M20.1,15.1A24.1,24.1,0,0,0,14.4,10c-3-1.7-6-2-8.2-.8a8.9,8.9,0,0,0-4,5.3C.8,19.7,3.2,27.4,8,32.8c2.3,2.5,8.1,7.9,14.5,4.4a4.8,4.8,0,0,0,1.8-1.7C27.4,31.1,25.6,21.9,20.1,15.1ZM21.4,35c-1.9,2.6-5.3,2.8-8.8.7a16.7,16.7,0,0,1-5-4.4c-4.8-6-6.4-14-3.6-17.9s5.2-2.8,8.7-.8a18.7,18.7,0,0,1,5,4.5C22.5,23.1,24.2,31.1,21.4,35Z" style="fill:#383838"/><path d="M18.1,16.6a19.2,19.2,0,0,0-5.4-4.7c-3.7-2.2-7.3-2-9.3.8S2.2,25.4,7.3,31.8a22.7,22.7,0,0,0,5.3,4.7c3.7,2.1,7.3,2,9.3-.8S23.2,23,18.1,16.6Zm3.2,17.2-.5.5c-1.7,1-4.1.7-6.5-.6a16.9,16.9,0,0,1-4.5-4.1C5.4,24.2,4,17,6.5,13.4A4.7,4.7,0,0,1,8,12.1h.3c2.3-.6,7.3,1.6,11.1,8C24.7,28.9,21.3,33.8,21.3,33.8Z" style="fill:#1e1e1e"/></g><g style="isolation:isolate"><g style="isolation:isolate"><path d="M13.1,34.1l2-1.3c2.4,1.4,4.6,1.6,6.2.6l-2.1,1.3c-1.6.9-3.8.7-6.1-.6Z" style="fill:#c2c2c2"/></g></g><g style="isolation:isolate"><g style="isolation:isolate"><path d="M7,13.7l2.1-1.2c-1.6.9-2.5,2.8-2.5,5.5a15,15,0,0,0,1.5,6.4L6,25.7a15.7,15.7,0,0,1-1.5-6.5c0-2.7,1-4.6,2.5-5.5Z" style="fill:#c2c2c2"/><path d="M6,25.7l2.1-1.3a18.2,18.2,0,0,0,3.3,5.3L9.3,30.9A20,20,0,0,1,6,25.7Z" style="fill:#e7e7e7"/><path d="M9.3,30.9l2.1-1.2a13.3,13.3,0,0,0,3.7,3.1l-2,1.3a14.4,14.4,0,0,1-3.8-3.2Z" style="fill:#c2c2c2"/></g></g><path d="M22.3,27.9,19.4,26l2.8,1c0-.1-.1-.1-.1-.2l-3.7-1.4-1.7-1h1.5l3.7,1.4v-.3l-2.8-1,2.5.2v-.2l-3.4-.3-1.5-.5,1.2-.3,3.5.4c-.1,0-.1-.1-.1-.2l-2.6-.3,2.3-.5c0-.1-.1-.1-.1-.2l-3,.6-1.3-.2,1-.5,3.1-.4-.2-.2-2.3.3,1.9-1-.2-.2-2.3,1.3H16.1l1-.9,2.3-1.1a.3.3,0,0,0-.1-.2l-1.8.8,1.4-1.4-.2-.2-1.8,1.9-1.2.6.8-1.4,1.7-1.8h-.1l-1.3,1.2.9-1.7c-.1-.1-.1-.2-.2-.2l-1.3,2.4-.9,1,.3-1.6,1.3-2.5a.2.2,0,0,0-.2-.2l-.9,1.7.5-2.2c-.1-.1-.1-.2-.2-.2l-.7,3.3-.5.8V19.2l.9-3-.2-.2-.6,2.1.2-2.5-.3-.3-.2,3.8-.5,1.5-.2-1.9.2-4-.2-.2-.2,2.8L13.5,14l-.3-.2.6,4.8V20l-.5-1.6-.4-4.9-.3-.2.3,3.6-1-3.8h-.2l1.4,5.4.2,1.8-.9-2L11,12.9h-.3l1.1,3.9L10,12.6H9.8l2.4,5.7.3,1.2-.6-1.1L9.8,12.7H9.6s-.1,0,0,.1l1.5,4.1L9,13H8.8c-.1,0-.1.1,0,.1l2.9,5.4.7,1.8-1.2-1.6-3-5.5H8l2.2,4L7.5,13.6H7.3l3.7,5,.9,1.7-1.2-1.2-3.5-5H7v.2l2.6,3.7-3-3.2H6.5c-.1.1-.1.2,0,.2l4,4.2,1.1,1.6-1.3-1.1L6.1,15.4H6v.2l3.1,3.3L5.8,16.3H5.7a.1.1,0,0,0,0,.2L10.1,20l1.2,1.2-1.2-.6L5.8,16.9H5.7c-.1,0-.1.1,0,.1L9,19.9,5.6,18H5.5a.1.1,0,0,0,0,.2L10,20.8l1.3,1.1L10,21.4,5.5,18.7H5.3a.3.3,0,0,0,.1.2L8.9,21,5.5,19.8H5.4c0,.1,0,.1.1.2l4.4,1.5,1.7,1.1-1.5-.2L5.7,21H5.6c-.1,0-.1,0-.1.1h.1l3.6,1.3-3.3-.3a.1.1,0,0,0-.1.1H5.7c0,.1.1.1.1.2l4.3.3,1.5.5-1.2.2L6.1,23a.1.1,0,0,1-.1.1h.1l3.5.4-3,.6H6.5c-.1,0-.1,0,0,.1h.1l3.8-.8h1.3l-1,.6-4,.5H6.6v.2h.1l3.4-.4L7.3,26.2h0l3.4-1.8,1.5-.2-1,1L7.9,27.1h0L10.8,26,8.5,28.3v.2h.1l2.7-2.7,1.1-.6-.7,1.4L9.1,29.3c-.1,0-.1.1,0,.1h.2l2.2-2.2L9.9,30.3v.2h.1l2-3.8.9-.9-.3,1.6-2,3.7a.3.3,0,0,0,.1.2H11l1.5-2.8-.8,3.6a.3.3,0,0,0,.1.2h.1l1-4.6.4-.8v1.3l-1.4,4.3v.2h.2c0-.1,1-3.4,1-3.4l-.3,4h.3l.3-5,.5-1.5.2,1.9-.3,5c0,.1,0,.2.1.2a.1.1,0,0,0,.1-.1.1.1,0,0,1-.1.1h.1l.3-3.7.5,4.1c0,.1,0,.1.1.2h.1l-.7-5.5V27.1l.5,1.6.5,5.5h.2l-.3-4,1.1,4.2a.1.1,0,0,0,.1.1h.1l-1.5-5.7L15,26.9l.9,2,1.5,5.7h.2l-1.1-4.1,1.8,4.1h.2l-2.4-5.7-.3-1.2.6,1.1,2.1,5.7h.2l-1.5-4.1,2.1,3.9h.2c0-.1,0-.1.1-.1l-3-5.5-.7-1.8,1.2,1.7,3,5.5h.2c0-.1-2.2-4.1-2.2-4.1l2.7,3.6H21c0-.1-3.7-5.1-3.7-5.1l-.9-1.7,1.2,1.2,3.5,5h.2L18.7,29l3,3.2h.1c.1,0,.1,0,0-.1h0l-4-4.3-1.1-1.5L18,27.3l4.2,4.4v-.3l-3-3.2,3.1,2.4v-.3l-4.1-3.2L17,25.9l1.2.6L22.3,30v-.3l-3-2.5,3.1,1.7v-.2l-4.1-2.4L17,25.2l1.3.5,4.1,2.4h0A.3.3,0,0,0,22.3,27.9ZM12.7,21v.3l-.3-.2-.5-1Zm-.4.2.2.4-.2-.2-.7-.9ZM11,22l.9.3.4.4h-.2Zm0,.9h1l.4.2H12Zm.2.7h0Zm.2.8.7-.4h.3Zm.4.8.7-.7h.4l-.2.4Zm.6.7.5-.9.3-.2v.4Zm1,.1-.3.5.3-1.1h0Zm.1-6.2.2,1v-1Zm.1,7V26l.2-.4v.2Zm.4-6V20l.2,1.2v-.4Zm.3,6.3-.2-1.2v1.2Zm3-2.9H16.2l-.3-.2h.4Zm-.2-.8-.8.2h-.4l.3-.2Zm-.2-.7-.7.4h-.5l.2-.2Zm-2.5-1.3v-.2l.3-.9V21Zm.2,4.9v1Zm.3-4.6h0v-.7l.3-.5Zm.2.6v-.5l.7-.7-.5,1Zm.5,0,.8-.4-.7.7h-.3Zm0,3.7v-.3l.3.3.5,1Zm.4-.1-.2-.4.2.2.7.9Zm.4-1.1-.4-.4h.2l1.1.7Z" style="fill:#a0a0a0"/><path d="M13.1,13.1c-5.3-3.1-9.6-.6-9.7,5.5s4.3,13.6,9.7,16.7,9.6.6,9.6-5.6S18.4,16.1,13.1,13.1Zm0,21c-4.8-2.8-8.6-9.4-8.6-14.9s3.9-7.7,8.6-4.9,8.6,9.4,8.6,14.8S17.8,36.8,13.1,34.1Z" style="fill:#686868"/><path d="M13.8,21.8a1.2,1.2,0,0,0-1.3-.1l-1,.6a1.3,1.3,0,0,0-.5,1.1,4.1,4.1,0,0,0,1.8,3.2,1.4,1.4,0,0,0,1.1.1l1.2-.6a1.4,1.4,0,0,0,.5-1.2A4,4,0,0,0,13.8,21.8Z" style="fill:#686868"/><g style="isolation:isolate"><path d="M28.3,19.9a32.1,32.1,0,0,0-5-7.9,24.6,24.6,0,0,0-5.6-4.7C14.1,5.2,10.8,5,8.5,6.4L3.2,9.5,23,23h.1L28.3,20Z" style="fill:#ffaf24"/><path d="M12.4,10.4c-3-1.8-5.7-2.2-7.9-1.5a7.8,7.8,0,0,0-2.2,1.2v1l20.8,12C20.8,17.8,16.9,12.9,12.4,10.4Z" style="fill:#cd8005"/><path d="M22.7,22.1a25.7,25.7,0,0,0-1.2-2.7l-.9-1.6L19.3,16l-1.4-1.8-1.7-1.7a20.9,20.9,0,0,0-3.9-2.7l-2-.8a6.7,6.7,0,0,0-1.9-.5,6.7,6.7,0,0,0-2.9.1l-.8.2h.8a7.4,7.4,0,0,1,2.8.3l1.8.5,1.8,1,1.8,1.2,1.8,1.5a12.9,12.9,0,0,1,1.7,1.6l1.5,1.6L21,19.7a20.6,20.6,0,0,1,1.5,2.4l.6,1A5.5,5.5,0,0,0,22.7,22.1Z" style="fill:#ffaf24;opacity:0.5"/></g><path d="M26.2,34.6c.4.5,22.2,13.3,23.6,13.3l5.9-4.2a4.4,4.4,0,0,0,1.4-2.2,98.2,98.2,0,0,0,1.7-13.4,8.9,8.9,0,0,0-.4-3.6,8.8,8.8,0,0,0-4.3-4.6A30.9,30.9,0,0,0,48,18l-5-1-4.5-1c-2.9-.6-5.8-1.1-8.8-1.5l-4.4-.7c-.8-.1-3.2,1-4.5,2a.9.9,0,0,0-.1,1.4C26.8,23.8,25.8,34,26.2,34.6Z" style="fill:#4f4d4c"/><path d="M57.2,30.3c-.4-1.7-.8-4.7-1.8-6.7l-7,4.2s4.9,8.7,4.9,9.6a51,51,0,0,1-.6,8.4l3-2.1a4.4,4.4,0,0,0,1.4-2.2c.3-2,.7-4.4,1.1-6.8S57.6,31.8,57.2,30.3Z" style="fill:#333;opacity:0.6000000000000001"/><path d="M24.1,20.6a24.1,24.1,0,0,1,3.2,13.2l4.4-1.9,5.6-4.2L24.2,20.1Z" style="fill:#282828;opacity:0.7000000000000001"/><path d="M71.9,53.7a1.2,1.2,0,0,0-1.3-.1l-1.1.6a1.3,1.3,0,0,0-.5,1.1,4.1,4.1,0,0,0,1.8,3.2,1.4,1.4,0,0,0,1.1.1l1.2-.6a1.2,1.2,0,0,0,.6-1.2A4,4,0,0,0,71.9,53.7Z" style="fill:#a0a0a0"/><g style="isolation:isolate"><path d="M78.5,47h0c-2.2-2.7-7.9-8.5-14.3-5.7,2-.8,4.6-.3,7.3,1.2a20.4,20.4,0,0,1,5.7,5.1c5.5,6.8,7.3,15.9,4.1,20.4l-.9,1C86.3,64.5,84.2,54.5,78.5,47Z" style="fill:#383838"/><path d="M80.9,53.7a32,32,0,0,0-3.7-6.1l-.7-.9a23.2,23.2,0,0,0-5-4.2c-3.1-1.7-6-2.1-8.2-.8l-.4.2c2.2-1.2,5.1-.9,8.1.8A19.5,19.5,0,0,1,76,47l.8.8a32,32,0,0,1,3.7,6.1c2.4,5.5,2.7,11.1.4,14.3a4.8,4.8,0,0,1-1.8,1.7l.4-.2A5.8,5.8,0,0,0,81.3,68C83.6,64.8,83.3,59.1,80.9,53.7Z" style="fill:#4f4f4f"/><path d="M76.8,47.8A22.6,22.6,0,0,0,71,42.7c-3-1.7-5.9-2-8.1-.8a8.9,8.9,0,0,0-4.1,5.3c-1.4,5.2,1.1,12.9,5.9,18.3,2.2,2.5,8.1,7.9,14.4,4.4a4.8,4.8,0,0,0,1.8-1.7C84.1,63.8,82.2,54.6,76.8,47.8ZM78,67.7c-1.9,2.6-5.3,2.8-8.7.7a15.6,15.6,0,0,1-5-4.4c-4.9-6-6.5-14-3.7-17.9s5.3-2.8,8.8-.8a18.7,18.7,0,0,1,5,4.5C79.2,55.8,80.8,63.8,78,67.7Z" style="fill:#383838"/><path d="M74.7,49.3a18.9,18.9,0,0,0-5.3-4.7c-3.7-2.1-7.4-2-9.3.8s-1.3,12.7,3.8,19.1a23,23,0,0,0,5.4,4.7c3.7,2.1,7.3,2,9.3-.8S79.8,55.7,74.7,49.3Zm3.2,17.2-.5.5c-1.7,1-4.1.7-6.5-.6a16.9,16.9,0,0,1-4.5-4.1c-4.3-5.4-5.8-12.6-3.3-16.2a4.7,4.7,0,0,1,1.5-1.3h.3c2.3-.6,7.3,1.6,11.2,8C81.4,61.6,77.9,66.5,77.9,66.5Z" style="fill:#1e1e1e"/></g><g style="isolation:isolate"><g style="isolation:isolate"><path d="M69.7,66.8l2.1-1.3c2.4,1.4,4.5,1.6,6.1.6l-2.1,1.3c-1.5.9-3.7.7-6.1-.6Z" style="fill:#c2c2c2"/></g></g><g style="isolation:isolate"><g style="isolation:isolate"><path d="M63.6,46.4l2.1-1.2c-1.5.9-2.5,2.8-2.5,5.5a16.6,16.6,0,0,0,1.5,6.4l-2.1,1.3a17.5,17.5,0,0,1-1.5-6.5c0-2.7,1-4.6,2.5-5.5Z" style="fill:#c2c2c2"/><path d="M62.6,58.4l2.1-1.3A20.6,20.6,0,0,0,68,62.4l-2.1,1.2a23,23,0,0,1-3.3-5.2Z" style="fill:#e7e7e7"/><path d="M65.9,63.6,68,62.4a13.7,13.7,0,0,0,3.8,3.1l-2.1,1.3a18.5,18.5,0,0,1-3.8-3.2Z" style="fill:#c2c2c2"/></g></g><path d="M79,60.6l-3-1.9,2.8,1v-.2L75,58.1l-1.6-1h1.4l3.8,1.4c0-.1-.1-.2-.1-.3l-2.7-1,2.5.2a.3.3,0,0,1-.1-.2L74.9,57l-1.5-.5,1.1-.3,3.5.4a.3.3,0,0,0-.1-.2l-2.6-.3,2.3-.5c0-.1,0-.1-.1-.2l-3,.6-1.3-.2,1-.5,3.1-.4v-.2l-2.3.3,1.8-1h-.1l-2.4,1.2-1.4.2.9-1,2.4-1.1c-.1-.1-.1-.2-.2-.2l-1.7.8,1.3-1.4c0-.1-.1-.1-.1-.2l-1.9,1.9-1.1.6.7-1.4,1.7-1.8h-.1l-1.2,1.2.8-1.7a.2.2,0,0,0-.2-.2l-1.2,2.4-1,1,.4-1.6L73.6,50c-.1-.1-.2-.1-.2-.2l-.9,1.7.4-2.2-.2-.2L72,52.4l-.4.8V51.9l.9-3-.2-.2-.6,2.1V48.3l-.2-.3-.3,3.8L71,53.3l-.3-1.9.3-4-.3-.2V50l-.4-3.3-.3-.2.6,4.8v1.4L70,51.1l-.5-4.9-.3-.2.4,3.6-1-3.8h-.3l1.4,5.4.2,1.8-.8-2-1.5-5.3h-.2l1,3.9-1.7-4.1h-.3L68.8,51l.4,1.2-.6-1.1-2.2-5.7c0-.1,0-.1-.1-.1h-.1l1.6,4.1-2.2-3.9h-.2l2.9,5.4.7,1.8-1.2-1.6-3-5.5h-.2l2.2,4-2.7-3.6H64c-.1,0-.1.1,0,.1l3.6,5,.9,1.7-1.2-1.2-3.5-5h-.2v.2l2.7,3.7-3.1-3.2h-.1v.2L67.2,52l1.1,1.6-1.4-1.1-4.1-4.4h-.2c0,.1,0,.1.1.2l3,3.3L62.4,49h-.1v.2l4.5,3.5,1.1,1.2-1.1-.6-4.4-3.7h-.1l3.3,2.8-3.4-1.9h-.1c0,.1,0,.2.1.2l4.4,2.6L68,54.6l-1.4-.5-4.5-2.7H62l3.6,2.1-3.4-1.2H62c0,.1.1.1.1.2l4.5,1.5,1.6,1.1-1.4-.2-4.5-1.5h-.2a.1.1,0,0,1,.1.1l3.6,1.3-3.3-.3h-.1c0,.1,0,.1.1.2l4.2.3,1.5.5-1.2.2-4.2-.5h-.1s-.1,0,0,.1a.1.1,0,0,0,.1.1l3.5.4-3.1.6h0l3.8-.8h1.4l-1.1.6-3.9.5h-.1a.1.1,0,0,0,0,.2h.1l3.3-.4-2.8,1.4h0a.1.1,0,0,0-.1.1H64l3.4-1.8,1.4-.2-.9,1-3.4,1.6h.1l2.8-1.3L65.2,61c-.1,0,0,.1,0,.2h.2L68,58.4l1.2-.6-.7,1.4L65.7,62a.1.1,0,0,0,.1.1h.1l2.2-2.2L66.5,63a.3.3,0,0,0,.1.2h.2l1.9-3.8,1-.9L69.3,60l-1.9,3.7v.2h.1L69.1,61l-.8,3.6a.3.3,0,0,0,.1.2h.1c.1,0,1.1-4.6,1.1-4.6l.4-.8v1.3L68.6,65h.2l1-3.4-.2,4h.2l.3-5,.5-1.5.2,1.9-.3,5a.3.3,0,0,0,.1.2h.2l.2-3.7.5,4.1c0,.1.1.1.1.2h.2l-.7-5.5V59.8l.4,1.6.5,5.5h.3l-.4-4,1.1,4.2h.2c0-.1.1-.1,0-.1l-1.5-5.7V59.6l.8,2L74,67.3a.1.1,0,0,1,.1.1h.2l-1.1-4.1,1.7,4.1h.3l-2.5-5.7-.3-1.2.6,1.1,2.1,5.7h.1a.1.1,0,0,0,.1-.1h.1l-1.6-4.1L76,66.8h.2l-3-5.5-.6-1.8,1.2,1.7,2.9,5.5H77l-2.2-4.1,2.6,3.6h.2c0-.1-3.6-5.1-3.6-5.1l-1-1.7,1.2,1.2,3.6,5H78l-2.7-3.8,3,3.2h.2l-4.1-4.3-1.1-1.5L74.7,60l4.1,4.4c0-.1.1-.2.1-.3l-3.1-3.2,3.1,2.4V63l-4.1-3.2-1.1-1.2,1.1.6L79,62.7v-.3l-3.1-2.5L79,61.6v-.2L74.9,59l-1.3-1.1,1.3.5L79,60.8h0Zm-9.7-6.9v.4l-.3-.3-.5-1Zm-.4.2.2.4-.2-.2-.6-.9Zm-1.3.8.9.3.5.4h-.3Zm.1.9h1l.3.2h-.3Zm.1.7h0Zm.2.8.8-.4h.5l-.2.2Zm.5.8.7-.7h.3v.4Zm.6.7.5-.9.3-.2V58Zm.9.1-.2.5.2-1.1h.1Zm.1-6.2.3,1v-1Zm.1,7v-.7l.2-.5v.2Zm.4-6v.6Zm.3,6.3V58.4l.2.6Zm3-2.9h-1l-.4-.3h.4Zm-.1-.8-.9.2h-.4l.3-.2Zm-.2-.7-.8.4h-.5l.2-.2Zm-2.5-1.2v-.3l.3-.9v.7Zm.1,4.8v-.4l.2.3V60Zm.4-4.6h-.1v-.7l.3-.5Zm.1.6v-.5l.7-.7-.5,1Zm.5,0,.9-.4-.7.7H72Zm.1,3.8v-.4l.2.3.6,1Zm.3-.2-.2-.4.3.2.6.9Zm.5-1.1-.5-.4h.2l1.1.7Z" style="fill:#a0a0a0"/><path d="M69.8,45.8c-5.4-3.1-9.7-.6-9.7,5.5S64.4,64.9,69.7,68s9.7.6,9.7-5.6S75.1,48.8,69.8,45.8Zm-.1,21C65,64,61.1,57.4,61.1,51.9S65,44.2,69.8,47s8.5,9.4,8.5,14.8S74.4,69.5,69.7,66.8Z" style="fill:#686868"/><path d="M70.5,54.5a1.2,1.2,0,0,0-1.3-.1l-1,.6a1.1,1.1,0,0,0-.6,1.1,4.1,4.1,0,0,0,1.8,3.2,1.4,1.4,0,0,0,1.1.1l1.3-.6a1.4,1.4,0,0,0,.5-1.2A4,4,0,0,0,70.5,54.5Z" style="fill:#686868"/><g style="isolation:isolate"><path d="M42.7,14.1h-.3a26.8,26.8,0,0,1-5.1-1.7,44.7,44.7,0,0,1-6.5-4A52.2,52.2,0,0,0,26,4.9a1.7,1.7,0,0,0-1.7,0L31.1,12l11.4,4.1C43.6,15.3,43.2,14.3,42.7,14.1Z" style="fill:#333"/><path d="M41.7,14.1a23.5,23.5,0,0,1-7.2-2.7l-.6-.3a59.7,59.7,0,0,1-5.3-3.6,25.4,25.4,0,0,0-3.3-2.4c-.4-.3-.8-.4-1-.2l-9.2,5.3c5.6,4.8,11.4,9.1,18.1,11.3l9.1-5.4h.1C43,15.7,42.4,14.2,41.7,14.1Z" style="fill:#444342"/><path d="M32.7,19.6c-1.2-.6-4.7-.3-13.3-6.8l-3.3-2.3c-.5-.3-.8-.4-1-.3a1.7,1.7,0,0,0-.7.9c-.7,2.6,8.5,7.8,8.9,8,3.2,1.8,7.6,3.6,9.8,2.4h.1C33.7,21.1,33.3,19.9,32.7,19.6Z" style="fill:#333"/><path d="M30.4,20.5c-4.2-1.1-8.5-3.9-12-6.5-1.5-1.1-2.5-2-3.2-2.4s-.7-.2-.7.2,3.4,4,7.7,6.4c7.2,4.2,10.5,3.6,9.6,2.7S30.9,20.6,30.4,20.5Z" style="fill:#282828"/></g><path d="M52,36,45.4,25.3a1,1,0,0,0-1.5-.4,1.1,1.1,0,0,0-.4,1.6L50,37.2a3.7,3.7,0,0,1,.5,1.8l-.3,5.4a2.1,2.1,0,0,1-.8,1.6l-2.7,2.1a1.5,1.5,0,0,1-1.7.1L23.5,35.4l.3-.2,2.3,1.1a1.2,1.2,0,0,0,1-.1l5.5-2.9.3-.2,5-5.8a1.1,1.1,0,0,0-.2-1.6,1.2,1.2,0,0,0-1.6.1l-4.8,5.6-4.8,2.5-2.2-1.1a1.4,1.4,0,0,0-1.1.1L21.4,34l-.3.3a2,2,0,0,0,.6,2.8L43.9,50.2a4.1,4.1,0,0,0,1.9.5,3.4,3.4,0,0,0,2.3-.8l2.7-2.1a4.3,4.3,0,0,0,1.7-3.3l.2-5.4A5.5,5.5,0,0,0,52,36Z" style="fill:#b7b7b7"/><path d="M48.3,44.5a9.3,9.3,0,0,0-1.1-1.6A35.4,35.4,0,0,0,40,37.3c-3.8-2.2-7.1-3.1-8.1-2.5l-1.8,1c1.1-.6,4.3.4,8.1,2.6a32.1,32.1,0,0,1,7.2,5.5,6.9,6.9,0,0,1,1.1,1.7,2.4,2.4,0,0,1,.2.8.5.5,0,0,1-.4.6l1.8-1a.7.7,0,0,0,.4-.7A3.1,3.1,0,0,0,48.3,44.5Z" style="fill:#777674"/><path d="M38.2,38.4c-4.7-2.7-8.5-3.6-8.5-1.9s3.8,5.3,8.5,8,8.5,3.5,8.5,1.9S42.9,41.1,38.2,38.4Z" style="fill:#605e5c"/><g style="isolation:isolate"><polygon points="41.8 29.3 41.8 32.3 43.7 31.3 43.7 28.3 41.8 29.3" style="fill:#777674"/><polygon points="41.8 25.1 40 26.2 41.8 29.3 43.7 28.3 41.8 25.1" style="fill:#898785"/><polygon points="39.2 23.6 37.4 24.7 40 26.2 41.8 25.1 39.2 23.6" style="fill:#777674"/><polygon points="40 26.2 37.4 24.7 35.6 25.7 35.6 28.7 37.4 31.9 40 33.4 41.8 32.3 41.8 29.3 40 26.2" style="fill:#605e5c"/></g><path d="M35.8,16.8c-4,4.8,5.5,10.8,13.6,12,5.4.7,8.5-1.3,9.3-6.7a9.2,9.2,0,0,0,.1-3.3C57,11.5,39.7,12,35.8,16.8Z" style="fill:#ffaf24"/><path d="M56.2,16.6c.1-1-2.8-2.2-6.5-2.8s-6.9-.1-7,1,2.7,2.2,6.4,2.8S56,17.7,56.2,16.6Z" style="opacity:0.6000000000000001;mix-blend-mode:screen;fill:url(#Áåçûìÿííûé_ãðàäèåíò_549)"/><path d="M25,33.3a35.1,35.1,0,0,0-3.5-2.5c-1-.8-2.3-1.6-3.6-2.5l-4.4-2.6c-2.9-1.7-6-3.3-8.3-4.4L1.3,19.6a.9.9,0,0,0-1.1.2,1.1,1.1,0,0,0,.1,1.4s1.4,1.1,3.5,2.5,5,3.3,8,5l4.4,2.4c1.5.8,2.8,1.5,4,2a38.9,38.9,0,0,0,3.9,1.8,1.1,1.1,0,0,0,1.1-.3A.9.9,0,0,0,25,33.3Z" style="fill:#b7b7b7"/><path d="M43.6,46.7h-.3a.5.5,0,0,1-.3-.5V37.5a7,7,0,0,1,3.5-6l1-.6a.5.5,0,0,1,.8.2.5.5,0,0,1-.2.8l-1.1.6a5.9,5.9,0,0,0-2.8,5v7.6h.2a.4.4,0,0,1,.7.2.5.5,0,0,1-.2.8l-1,.6Z" style="fill:#b7b7b7"/><path d="M41.2,45.3h-.3a.9.9,0,0,1-.3-.5V36.1a6.9,6.9,0,0,1,3.5-5.9l1.8-1.1a.8.8,0,0,1,.8.2.6.6,0,0,1-.3.8l-1.7,1.1a5.6,5.6,0,0,0-2.9,4.9v7.6H42a.8.8,0,0,1,.8.2.7.7,0,0,1-.2.8l-1.1.6Z" style="fill:#b7b7b7"/><g id="Axonometric_Cylinder" data-name="Axonometric Cylinder"><path d="M36.6,41.2a.7.7,0,0,0-.6-.1l-5.4,3.2,1.1,1.9,5.5-3.1a.8.8,0,0,0,.2-.5A1.6,1.6,0,0,0,36.6,41.2Z" style="fill:#333"/><path id="Cylinder_face" data-name="Cylinder face" d="M31.9,45.7c0,.5-.3.7-.8.5a2,2,0,0,1-.8-1.4.5.5,0,0,1,.8-.5A1.7,1.7,0,0,1,31.9,45.7Z" style="fill:#262626"/></g><path d="M63.4,7.4H63a.9.9,0,0,1-.3-1.2l2.6-4.7A.9.9,0,0,1,66.5,1a.9.9,0,0,1,.3,1.2L64.2,6.9A1,1,0,0,1,63.4,7.4Z" style="fill:#333"/><path d="M59.6,17.2a.5.5,0,0,1-.6-.4.7.7,0,0,1,.2-.9l1.9-1.1a1.2,1.2,0,0,0,.5-.7l1-7.3A.7.7,0,0,1,64,7l-1.1,7.3A2.5,2.5,0,0,1,61.8,16l-1.9,1.1Z" style="fill:#4e4e4e"/><path d="M65.2,15.3c.4.9-1.1,2.7-2.1,2.3s-1.8-2.4-.2-3.1a2.1,2.1,0,0,1,2,.4C65.1,15,65.1,15.2,65.2,15.3Z" style="fill:#333"/><path d="M64.9,15.4c-.3-.2-.9,0-1.3.6s-.5,1.1-.2,1.3.8-.1,1.2-.6S65.1,15.6,64.9,15.4Z" style="fill:#e9751c"/><g style="isolation:isolate"><g style="isolation:isolate"><g style="isolation:isolate"><path d="M58.6,15.5l-1.3-2.1h.2l1.3,2.1Z" style="fill:#adadad"/><path d="M58.8,15.4l-1.3-2.1.7-.2,1.3,2.1c-.1-.1-.3,0-.7.2Z" style="fill:#4e4e4e"/></g></g><g style="isolation:isolate"><g style="isolation:isolate"><path d="M56,17.3l-1.3-2.1.2-.3a6.5,6.5,0,0,1,1.5-1L57.6,16l-1.4,1c-.2.2-.2.3-.2.3Z" style="fill:#4e4e4e"/><path d="M57.6,16l-1.2-2.1.9-.5,1.3,2.1-1,.5Z" style="fill:#adadad"/></g></g><path d="M58.6,15.5c.8-.4,1.1-.4.7,0a9.1,9.1,0,0,1-2.4,1.6c-.8.4-1.2.3-.7-.1A12.5,12.5,0,0,1,58.6,15.5Z" style="fill:#1a1a1a"/></g><g style="isolation:isolate"><g style="isolation:isolate"><g style="isolation:isolate"><path d="M54.7,17.8l-1.5-2h.2l1.5,1.9-.2.2Z" style="fill:#adadad"/><path d="M54.9,17.6l-1.5-1.9.7-.3,1.5,2-.7.2Z" style="fill:#4e4e4e"/></g></g><g style="isolation:isolate"><g style="isolation:isolate"><path d="M52.3,19.9l-1.5-2,.2-.4,1.3-1.1,1.5,2-1.3,1.1c-.2.2-.2.3-.2.4Z" style="fill:#4e4e4e"/><path d="M53.8,18.4l-1.5-2,.9-.6,1.5,2a2.4,2.4,0,0,0-.9.6Z" style="fill:#adadad"/></g></g><path d="M54.7,17.8c.8-.5,1.1-.5.7,0a15.4,15.4,0,0,1-2.2,1.7c-.8.5-1.1.5-.7,0A8,8,0,0,1,54.7,17.8Z" style="fill:#1a1a1a"/></g><polygon points="60.2 17.4 54.2 20.9 59.4 34.1 64.6 31.1 60.2 17.4" style="fill:#ffaf24"/><path d="M55.2,22.5l1.5,4L62,23.4l-1.3-4C58.8,20.4,56.9,21.4,55.2,22.5Z" style="fill:#333"/><path d="M55.3,20.5l14,37.2a.6.6,0,0,1-.3.8c-.4.1-.7,0-.8-.3L53.1,21.3a1.2,1.2,0,0,1,2.2-.8Z" style="fill:#333"/><path d="M58.3,14.3l-5.4,3.1a2,2,0,0,0-.9,2.3l.7,2.2a2.4,2.4,0,0,0,.6.8l1.7.9,7.1-4.1a.9.9,0,0,0,.5-.9V16.9a2.2,2.2,0,0,0-.9-1.7l-1.8-.9A1.5,1.5,0,0,0,58.3,14.3Z" style="fill:#333"/><path d="M54.3,21.6c.4.9-1.1,2.7-2.1,2.3s-1.8-2.4-.2-3.1a2.1,2.1,0,0,1,2,.4Z" style="fill:#333"/><path d="M53.9,21.7c-.2-.2-.8,0-1.2.5s-.5,1.1-.2,1.4.8-.1,1.2-.6S54.2,21.9,53.9,21.7Z" style="fill:#e9751c"/><path d="M50.9,21.8a3.9,3.9,0,0,1-1.8-.4l-5-2.5a.8.8,0,0,1-.3-1c.1-.3.6-.4.9-.3l5.1,2.6a2.6,2.6,0,0,0,2.4-.1l.6-.4a.7.7,0,0,1,1,.3.6.6,0,0,1-.3.9l-.6.4A4.6,4.6,0,0,1,50.9,21.8Z" style="fill:#4e4e4e"/><path d="M36.8,21.6a.9.9,0,0,1-.3-1.7l7.6-2.5a.9.9,0,0,1,1.1.6.9.9,0,0,1-.5,1.1L37,21.6Z" style="fill:#333"/><path d="M65.4,22.2c.9,2.2-2.7,6.7-5.2,5.7s-4.6-5.8-.5-7.6a5,5,0,0,1,4.9.9A1.8,1.8,0,0,1,65.4,22.2Z" style="fill:#4e4e4e"/><path d="M64.7,22.2c-.7-.6-2.3.1-3.4,1.5s-1.5,3.2-.7,3.8,2.3-.1,3.4-1.6S65.5,22.8,64.7,22.2Z" style="fill:#f0fdff"/><path d="M67.7,2.1a1.4,1.4,0,0,1-2,.3A1.4,1.4,0,0,1,65,.6a1.5,1.5,0,0,1,2-.4A1.6,1.6,0,0,1,67.7,2.1Z" style="fill:#333"/><path d="M36.7,22.4a1.4,1.4,0,0,1-1.6-1.1,1.3,1.3,0,0,1,.7-1.8,1.5,1.5,0,0,1,1.7,1.1A1.4,1.4,0,0,1,36.7,22.4Z" style="fill:#333"/><path d="M60.6,15.5c.2.4-1.1,1.5-2.9,2.5s-3.5,1.6-3.7,1.3S60.4,15.2,60.6,15.5Z" style="fill:#333;opacity:0.8;mix-blend-mode:screen"/><path d="M61.9,20.7c-.5.1-.8.5-.6.8a1.4,1.4,0,0,0,1.3.3c.5-.2.8-.6.6-.9A1.2,1.2,0,0,0,61.9,20.7Z" style="fill:#4e4e4e;opacity:0.8;mix-blend-mode:screen"/><path d="M8.4,7.8c-.9,0-2.1,2-1.4,2.8s2.8.8,2.9-.9A2.1,2.1,0,0,0,8.9,8Z" style="fill:#333"/></g></g></g></g></svg>