<svg xmlns="http://www.w3.org/2000/svg" viewBox="0 0 64.3 60.2"><title>motorcycle</title><g id="Layer_2" data-name="Layer 2"><g id="Layer_1-2" data-name="Layer 1"><path d="M18.2,14.4l-3.5,1.7L8.3,26.9v5.9L17.4,43l10.3-.2L35,33.7l4.6-2.6L51.4,3.9V.8L49.1,2.1V0L40.5,5a15.4,15.4,0,0,1-5.2,5.4l-5.8,3.3-3.4,6.6v2.2l2.2-1.2,1.6,3.4-5.7,9.9-5.6,3.2-5.7-6V28Z" style="fill:#1d2936"/><polygon points="36.7 28.6 29.9 24.7 35 25.2 36.7 28.6" style="fill:#121a21"/><polygon points="8.3 32.8 8.3 26.9 14.7 16.1 17.5 14.7 17.5 14.7 11.8 28.4 11.8 32.8 17.9 39.2 20.6 39.7 18.6 42.3 17.4 43 8.3 32.8" style="fill:#f1c40f"/><polygon points="14.7 16.1 21.5 20.1 24.3 18.6 19 13.9 14.7 16.1" style="fill:#ffe578"/><polygon points="22.5 19.6 24.3 18.6 19 13.9 15.7 15.6 22.5 19.6" style="fill:#d35400"/><polygon points="16.8 15.2 16.9 14.2 15.2 15.1 15.2 12.9 17.7 8.6 19.6 7.9 17.5 14.7 16.8 15.2" style="fill:#f1c40f"/><polygon points="17.5 14.7 19.6 7.9 20.2 8.2 18.5 13.6 17.5 14.7" style="fill:#34495e"/><path d="M52.5,14.6c-1.4-.8-3.3-.7-5.4.5-4.2,2.4-7.5,8.3-7.5,13.1,0,2.4.8,4.1,2.2,4.9L48.5,37,59.2,18.5Z" style="fill:#1c2833"/><polygon points="50.7 18.8 53.6 15.8 48.7 14.4 48.7 17.2 43.2 25.5 35.9 38.8 43.4 32.8 46.6 24.7 50.7 18.8" style="fill:#0f161c"/><ellipse cx="53.6" cy="27.6" rx="10.7" ry="6.2" transform="translate(2.9 60.2) rotate(-60)" style="fill:#34495e"/><path d="M50.2,33.5C55.1,35,60.7,25.2,57,21.7,52,20.2,46.4,29.9,50.2,33.5Z" style="fill:#ecf0f1"/><path d="M53.6,29.6a4,4,0,0,0,1.7-3c0-1.1-.8-1.5-1.7-1a3.8,3.8,0,0,0-1.7,3C51.9,29.7,52.6,30.1,53.6,29.6Z" style="fill:#34495e"/><path d="M12.9,37.4c-1.3-.8-3.2-.7-5.3.6A16.6,16.6,0,0,0,0,51.1c0,2.4.8,4.1,2.2,4.9L9,59.8,19.7,41.3Z" style="fill:#1c2833"/><path d="M8.9,33.4c-4.2.5-6.6,6.2-6.4,7.7L9.3,45c.6-2.6,4.6-7.7,6.4-7.7Z" style="fill:#f39c12"/><ellipse cx="13.9" cy="50.5" rx="10.7" ry="6.2" transform="translate(-36.7 37.3) rotate(-60)" style="fill:#34495e"/><path d="M10.6,56.3c4.9,1.6,10.5-8.2,6.7-11.7C12.4,43.1,6.8,52.8,10.6,56.3Z" style="fill:#ecf0f1"/><path d="M13.9,52.4a3.5,3.5,0,0,0,1.8-2.9c0-1.1-.8-1.6-1.8-1a3.9,3.9,0,0,0-1.7,2.9C12.2,52.5,13,53,13.9,52.4Z" style="fill:#34495e"/><path d="M25,18.3l-3.5,1.8L15.1,30.9v5.8l9.1,10.2,11.2-6.5L51,17.3l4.5-2.7,2.7-6.8V4.7L55.9,6V3.9l-8.6,5a15.4,15.4,0,0,1-5.2,5.4l-5.8,3.3-3.4,6.7v2.1L35,25.2l1.7,3.4-5.8,9.9-5.5,3.2-5.7-6V32Z" style="fill:#273747"/><polygon points="58.2 4.7 55.9 6 49.1 2.1 51.4 0.8 58.2 4.7" style="fill:#ffe780"/><path d="M32.9,26.4l-6.8-3.9V20.4l3.4-6.7,5.8-3.3A15.4,15.4,0,0,0,40.5,5l8.6-5,1.1,8.4-12.9,11Z" style="fill:#4c6b8a"/><path d="M35,25.2l-2.1,1.2V24.3l3.4-6.7,5.8-3.3a15.4,15.4,0,0,0,5.2-5.4l8.6-5V6L40.4,21.4Z" style="fill:#34495e"/><path d="M51.4.8l6.8,3.9Z" style="fill:#ffe780"/><polygon points="40.4 20.2 55.9 6 58.2 4.7 58.2 7.8 55.5 14.6 51 17.3 40.4 22.3 40.4 20.2" style="fill:#f1c40f"/><polygon points="15.1 36.7 15.1 30.9 21.5 20.1 24.3 18.6 24.3 18.6 18.6 32.3 18.6 36.8 24.7 43.2 28.9 40.9 25.4 46.2 24.2 46.9 15.1 36.7" style="fill:#f1c40f"/><polygon points="59.2 6.7 58.2 7.3 58.2 4.7 59.2 4.1 59.2 6.7" style="fill:#c0392b"/><polygon points="52.5 0.2 51.4 0.8 58.2 4.7 59.2 4.1 52.5 0.2" style="fill:#e74c3c"/><path d="M15.7,37.3c-4.2.5-6.6,6.2-6.4,7.7l1.1-.6c.6-2.6,4.7-5.6,6.4-5.5Z" style="fill:#f1c40f"/><polygon points="53.6 15.8 64.3 16.8 56.7 12.6 58.2 10.8 57.7 9.2 53.6 15.8" style="fill:#34495e"/><polygon points="23.6 19.1 23.7 18.1 22 19 22 16.8 24.5 12.5 26.4 11.8 24.3 18.6 23.6 19.1" style="fill:#f1c40f"/><polygon points="24.3 18.6 26.4 11.8 26.9 12.1 25.3 17.5 24.3 18.6" style="fill:#34495e"/><polygon points="49.1 0 55.9 3.9 47.3 8.9 40.5 5 49.1 0" style="fill:#5b81a6"/><polygon points="29.5 13.7 36.3 17.6 32.9 24.3 26.1 20.4 29.5 13.7" style="fill:#425c78"/><polygon points="32.9 24.3 32.9 26.4 26.1 22.5 26.1 20.4 32.9 24.3" style="fill:#2c3e50"/><polygon points="19.6 7.9 26.4 11.8 24.5 12.5 17.7 8.6 19.6 7.9" style="fill:#ffe578"/><rect x="17.4" y="8.8" width="4.9" height="7.84" transform="translate(-1.1 23.5) rotate(-60)" style="fill:#f39c12"/><rect x="18.4" y="9.8" width="2.9" height="5.84" transform="translate(-1.1 23.5) rotate(-60)" style="fill:#ecf0f1"/><polygon points="20.2 8.2 26.9 12.1 26.4 11.8 19.6 7.9 20.2 8.2" style="fill:#34495e"/><polygon points="15.2 15.1 22 19 22 16.8 15.2 12.9 15.2 15.1" style="fill:#e67e22"/><polygon points="14.7 16.1 21.5 20.1 15.1 30.9 8.3 26.9 14.7 16.1" style="fill:#f39c12"/><polygon points="15.1 30.9 15.1 36.7 8.3 32.8 8.3 26.9 15.1 30.9" style="fill:#e67e22"/><polygon points="8.3 32.8 15.1 36.7 15.7 37.3 8.9 33.4 8.3 32.8" style="fill:#d35400"/><path d="M10.3,6.9c-.2-.1-.4,0-.7.1a2.2,2.2,0,0,0-.8,1.5.8.8,0,0,0,.2.6l6.3,3.6,1.3-2.1Z" style="fill:#34495e"/><path d="M8.9,8a1.1,1.1,0,0,0-.1.5.8.8,0,0,0,.2.6l6.3,3.6.4-.7Z" style="fill:#1c2833"/><path d="M23.9,15.4h-.4a1.2,1.2,0,0,0-.5.9.5.5,0,0,0,.2.4l3,1.8.8-1.3Z" style="fill:#1c2833"/><path d="M26.1,16.1a.5.5,0,0,0-.6.1,1.7,1.7,0,0,0-.9,1.5c0,.3.1.5.3.5l5.1,3,1.3-2.1Z" style="fill:#34495e"/><path d="M24.7,17.2a4.3,4.3,0,0,0-.1.5c0,.3.1.5.3.5l5.1,3,.5-.7Z" style="fill:#1c2833"/><path d="M31.5,19.6a2.3,2.3,0,0,1-.8,1.6c-.5.2-.9,0-.9-.5a2,2,0,0,1,.9-1.6C31.1,18.8,31.5,19.1,31.5,19.6Z" style="fill:#2c3e50"/><path d="M31.1,20.4c-.6.8-1.3.4-.8-.5S31.5,19.5,31.1,20.4Z" style="fill:#ecf0f1"/></g></g></svg>