<svg xmlns="http://www.w3.org/2000/svg" xmlns:xlink="http://www.w3.org/1999/xlink" viewBox="0 0 92.1 64.2"><defs><linearGradient id="Áåçûìÿííûé_ãðàäèåíò_549" x1="68.26" y1="19.35" x2="70.22" y2="19.35" gradientUnits="userSpaceOnUse"><stop offset="0" stop-color="#846918"/><stop offset="0.14" stop-color="#9e7d1c"/><stop offset="0.41" stop-color="#c89d21"/><stop offset="0.65" stop-color="#e6b526"/><stop offset="0.85" stop-color="#f8c328"/><stop offset="1" stop-color="#ffc829"/></linearGradient><linearGradient id="Áåçûìÿííûé_ãðàäèåíò_1268" x1="25.92" y1="37.71" x2="24.37" y2="40.4" gradientUnits="userSpaceOnUse"><stop offset="0" stop-color="#ffc829"/><stop offset="0.24" stop-color="#ca9b1b"/><stop offset="0.49" stop-color="#9d740f"/><stop offset="0.7" stop-color="#7c5807"/><stop offset="0.88" stop-color="#684702"/><stop offset="1" stop-color="#614100"/></linearGradient><linearGradient id="Áåçûìÿííûé_ãðàäèåíò_549-2" x1="66.75" y1="34.14" x2="81.2" y2="48.21" xlink:href="#Áåçûìÿííûé_ãðàäèåíò_549"/><linearGradient id="Áåçûìÿííûé_ãðàäèåíò_550" x1="74.71" y1="35.29" x2="86.43" y2="35.29" gradientUnits="userSpaceOnUse"><stop offset="0" stop-color="#cd9305"/><stop offset="0.03" stop-color="#cf9608"/><stop offset="0.43" stop-color="#e9b423"/><stop offset="0.76" stop-color="#f9c633"/><stop offset="1" stop-color="#ffcd39"/></linearGradient><linearGradient id="Áåçûìÿííûé_ãðàäèåíò_549-3" x1="40.53" y1="33.79" x2="45.57" y2="33.79" xlink:href="#Áåçûìÿííûé_ãðàäèåíò_549"/></defs><title>s</title><g style="isolation:isolate"><g id="Layer_2" data-name="Layer 2"><g id="_0" data-name="0"><g id="_5" data-name="5"><g id="_6" data-name="6"><path d="M69.3,17.8c.1-.2.4-.5.7-.4l.3.2a8.4,8.4,0,0,1,.3,1.8,6,6,0,0,1-.3,2.1.9.9,0,0,1-.6.6,1.2,1.2,0,0,1-1.2-.8,2.5,2.5,0,0,1-.1-1.7A7.6,7.6,0,0,1,69.3,17.8Z" style="fill:#eeb211"/><path d="M70.2,17.5H70c-.3-.1-.6.2-.7.4a7.6,7.6,0,0,0-.9,1.8,2.5,2.5,0,0,0,.1,1.7A8.8,8.8,0,0,0,70.2,17.5Z" style="opacity:0.6000000000000001;mix-blend-mode:screen;fill:url(#Áåçûìÿííûé_ãðàäèåíò_549)"/><polygon points="63.9 46.9 50 55 46.8 50.1 48.4 46.6 53.3 43.3 63.9 46.9" style="fill:#26231f"/><path d="M10.2,18.4,5.3,21.7V22a6.2,6.2,0,0,0,.4,6.2l1.2,1.9,14-8.1Z" style="fill:#26231f"/><g id="Axonometric_Cylinder" data-name="Axonometric Cylinder"><path d="M59.4,48.9a3.5,3.5,0,0,0-3.5-.3l-3,1.8,6.9,11.9,3.1-1.8a3.3,3.3,0,0,0,1.4-3.1A11,11,0,0,0,59.4,48.9Z" style="fill:#26231f"/><path id="Cylinder_face" data-name="Cylinder face" d="M61.2,59.1c0,3.2-2.1,4.4-4.8,2.9a11,11,0,0,1-4.9-8.5c0-3.1,2.2-4.4,4.9-2.8A10.5,10.5,0,0,1,61.2,59.1Z" style="fill:#3f3932"/></g><g style="isolation:isolate"><path d="M56.3,60.3a7.6,7.6,0,0,1-3.4-5.7c0-2.2,1.5-3.1,3.3-2.1a7.5,7.5,0,0,1,3.5,5.8C59.7,60.4,58.2,61.4,56.3,60.3Z" style="fill:#d8d8d8"/><path d="M56.3,59.8a6.3,6.3,0,0,1-2.9-5c0-1.9,1.2-2.7,2.8-1.8a6.4,6.4,0,0,1,3,5C59.2,59.9,57.9,60.7,56.3,59.8Z" style="fill:#a8a8a8"/><path d="M56.5,58.2a3.5,3.5,0,0,1-1.7-2.8c0-1,.7-1.5,1.6-1a3.7,3.7,0,0,1,1.7,2.8C58.1,58.3,57.4,58.7,56.5,58.2Z" style="fill:#d8d8d8"/><path d="M58.3,55.4a4.4,4.4,0,0,0-1.6-1.7c-1.2-.7-2.1-.1-2.1,1.3a4.9,4.9,0,0,0,2.1,3.7c1.2.6,2.1.1,2.1-1.2h0A4.6,4.6,0,0,0,58.3,55.4Zm-.2,1.9c-.1,1-.8,1.4-1.6.9a3.5,3.5,0,0,1-1.7-2.8c0-1,.7-1.5,1.6-1a3.7,3.7,0,0,1,1.2,1.3,2,2,0,0,1,.4.8c0,.2.1.5.1.7Z" style="fill:#bebebe"/></g><g id="Axonometric_Cylinder-2" data-name="Axonometric Cylinder"><path d="M16.6,24.2c-1.4-.8-2.6-.9-3.5-.3l-3,1.7,6.9,12,3.1-1.8a3.3,3.3,0,0,0,1.4-3.1A10.8,10.8,0,0,0,16.6,24.2Z" style="fill:#26231f"/><path id="Cylinder_face-2" data-name="Cylinder face" d="M18.4,34.4c0,3.1-2.2,4.4-4.9,2.8a10.5,10.5,0,0,1-4.8-8.4c0-3.1,2.1-4.4,4.8-2.8A10.6,10.6,0,0,1,18.4,34.4Z" style="fill:#3f3932"/></g><g style="isolation:isolate"><path d="M13.5,35.6a7.4,7.4,0,0,1-3.4-5.8c0-2.1,1.5-3.1,3.3-2a7.1,7.1,0,0,1,3.4,5.8C16.9,35.7,15.4,36.7,13.5,35.6Z" style="fill:#d8d8d8"/><path d="M13.5,35.1a6.3,6.3,0,0,1-2.9-5c0-1.9,1.2-2.7,2.8-1.8a6.6,6.6,0,0,1,3,5C16.4,35.2,15.1,36,13.5,35.1Z" style="fill:#a8a8a8"/><path d="M13.7,33.5A3.5,3.5,0,0,1,12,30.7c0-1.1.7-1.5,1.6-1a3.7,3.7,0,0,1,1.7,2.8C15.3,33.6,14.6,34,13.7,33.5Z" style="fill:#d8d8d8"/><path d="M15.4,30.7A3.6,3.6,0,0,0,13.9,29c-1.2-.7-2.2-.1-2.1,1.3a4.5,4.5,0,0,0,2.1,3.6c1.2.7,2.1.2,2.1-1.1v-.2A3.5,3.5,0,0,0,15.4,30.7Zm-.1,1.9c-.1,1-.8,1.4-1.6.9A3.5,3.5,0,0,1,12,30.7c0-1.1.7-1.5,1.6-1A3,3,0,0,1,14.8,31a2.5,2.5,0,0,1,.4.7c0,.3.1.6.1.8Z" style="fill:#bebebe"/></g><path d="M89.4,37.2a25.5,25.5,0,0,0-6.8-6.7A141.3,141.3,0,0,1,67,18.4c-2.2-1.9-6-5.5-8.2-7.2S44.8,2.7,39.2.5l-12.8,1L21.8.1a2.7,2.7,0,0,0-2,.3L2.6,10.4a2.5,2.5,0,0,0-1.2,1.1,2,2,0,0,0-.4.8,12,12,0,0,0-.6,2.4v8.4A4.1,4.1,0,0,0,.9,25c.5,1,4.6,4.2,5.9,5.1,0-4.9,1.6-8,6.3-5.2s6.4,7.7,6.4,12.7L50,55c0-4.9,1.6-7.9,6.4-5.2s6.2,7.5,6.3,12.4l1.4.7a11.7,11.7,0,0,0,5.1,1.3c6.1,0,10.8-2.5,15.2-5.4s5.8-4.2,7-6.1a5.9,5.9,0,0,0,.7-2.9C92.1,47.2,92,41.2,89.4,37.2Z" style="fill:#db9200"/><path d="M7.1,26.8a16.9,16.9,0,0,0-.3,3.3C5.5,29.2,1.4,26,.9,25a4.1,4.1,0,0,1-.5-1.9h0Zm12,7a15.8,15.8,0,0,1,.4,3.8L50,55a15.1,15.1,0,0,1,.3-3.2Z" style="opacity:0.2;mix-blend-mode:screen;fill:url(#Áåçûìÿííûé_ãðàäèåíò_1268)"/><path d="M84.3,53.3c6.9-4.3,7.5-8.5,7.5-8.8a17,17,0,0,0-2.4-7.3,25.5,25.5,0,0,0-6.8-6.7A141.3,141.3,0,0,1,67,18.4c-2.2-1.9-6-5.5-8.2-7.2S41.1,1,39.2.5,27.3,6.4,21.1,10.4a.6.6,0,0,0,.1,1c5.5,2.1,17.5,9,19.4,11.4S51.3,38.7,51.3,38.7c2.8,2.9,9.3,8.6,12.3,11.3s3,4.6,3.3,7.1a1.2,1.2,0,0,0,.8.9C72.5,58.7,77.8,57.6,84.3,53.3Z" style="fill:#eeb211"/><path d="M39.2.5c-2.2.7-11.9,5.9-18.1,9.9a.6.6,0,0,0,.1,1A162.6,162.6,0,0,1,39,21.4c.4.3,6.7-2.2,11.6-5s7.7-5.5,7.5-5.6C55.2,8.9,41.5.8,39.2.5Z" style="fill:#ffc712"/><path d="M67.5,51.6c12.4.9,23.7-9.5,22.4-13.6a2.2,2.2,0,0,0-.5-.8,25.5,25.5,0,0,0-6.8-6.7c-3.1-2.1-5.4-3.7-7.5-5.4C66.5,36.5,51.3,38.7,51.3,38.7c2.1,2.2,8.8,8.2,11.9,11A7.7,7.7,0,0,0,67.5,51.6Z" style="opacity:0.6000000000000001;mix-blend-mode:screen;fill:url(#Áåçûìÿííûé_ãðàäèåíò_549-2)"/><path d="M17.9,16.4c-.1,0-.1,0-.1.1-1,2-.7,9.2-1,11.8l.2.3c.3-2.5.1-10.2,1-12A.3.3,0,0,0,17.9,16.4Z" style="fill:#bc972a;opacity:0.2;mix-blend-mode:multiply"/><path d="M53.4,43.5l-4.8-7.4h-.2l4.9,7.4v5.2h.2V43.6C53.5,43.5,53.5,43.5,53.4,43.5Z" style="fill:#bc972a;opacity:0.2;mix-blend-mode:multiply"/><path d="M33.2,27.8c-.1,0-.2,0-.2-.1-.4,4.1-.8,9.5-.8,15.7L19.4,36a.4.4,0,0,1,.1.3l12.8,7.4L50,53.9v-.2L32.4,43.5C32.4,37.4,32.8,31.9,33.2,27.8Z" style="fill:#bc972a;opacity:0.2;mix-blend-mode:multiply"/><path d="M56.7,37.7c6.1-1.7,12.1-5.5,17.2-10.3a1.3,1.3,0,0,0-.1-2L58.2,11.9c-3.6,3.2-9.4,6.5-16.8,9.7,3.7,6.3,8,12.3,11.4,15.3A3.8,3.8,0,0,0,56.7,37.7Z" style="fill:#282523"/><path d="M53.7,35.2h-.5a4.7,4.7,0,0,1-2.9-1.9c-1.9-2.4-5.9-7.6-7.7-10.5a.6.6,0,0,1,.3-.8q10.4-4.7,15.3-8.7a.5.5,0,0,1,.8,0L71.2,23.8a2.5,2.5,0,0,1,.4.7.8.8,0,0,1-.3.7c-5.5,5.2-10.7,8.3-16.4,9.9Z" style="fill:#35312d"/><path d="M40.8,24.3a9.1,9.1,0,0,0-3.2-3c-5-2.9-11.2-6.6-15.3-8.6a2.2,2.2,0,0,0-1.4-.2c-2.7.6-9.2,3.9-7.9,4.7L48.6,37.4c.2.1.6-.2.4-.4C47.8,35,43.1,27.8,40.8,24.3Z" style="fill:#282523"/><path d="M19,13.6c-2.4,1-5.5,2.6-5.5,3.2l3.6,2.1A23.1,23.1,0,0,1,19,13.6Z" style="fill:#35312d"/><path d="M17.6,19.1l15.3,8.8a32.1,32.1,0,0,1,1.8-8c-4.4-2.5-9.3-5.4-12.6-7a1.2,1.2,0,0,0-1-.1l-1.4.5A17.7,17.7,0,0,0,17.6,19.1Z" style="fill:#35312d"/><path d="M40.5,24.5a8.1,8.1,0,0,0-3.1-3l-2.3-1.4a35.1,35.1,0,0,0-1.8,8l15.1,8.6h.1C47.3,34.6,42.6,27.6,40.5,24.5Z" style="fill:#35312d"/><path d="M77.6,51.7c.2,1,1.2,3.2,1.9,3.1,2.8-.6,8.5-4.8,9.4-6.4s-.8-4-1.2-4.1a22.2,22.2,0,0,1-5.1,4.3C80,50.2,77.4,51.3,77.6,51.7Z" style="fill:#cd9305"/><path d="M82.6,48.6a31.8,31.8,0,0,1-3.9,2.1c-.8.4-1.2.7-1.1,1a5.8,5.8,0,0,0,1.5,2.9c2.9-.6,8.5-4.7,9.4-6.3s-.5-3-.9-3.8A22.8,22.8,0,0,1,82.6,48.6Z" style="fill:#35312d"/><path d="M59.1,38.5c3.4,4.8,9.6,8.2,14.8,10.1C69,46.7,62.9,42.3,59.1,38.5Z" style="fill:#eeb211"/><g style="opacity:0.6000000000000001;mix-blend-mode:screen"><path d="M74.7,29.4c3.9,2.6,9.7,7.7,11.7,11.8C85.7,38.2,80.7,32.5,74.7,29.4Z" style="fill:url(#Áåçûìÿííûé_ãðàäèåíò_550)"/></g><path d="M37,33.8l-2.7-1.6a.4.4,0,0,1-.3-.4v-.4a.2.2,0,0,1,.3-.1L37,32.8a.8.8,0,0,1,.2.5v.3C37.2,33.8,37.1,33.8,37,33.8Z" style="fill:#eeb211"/><path d="M21.2,24.7l-2.7-1.6a.5.5,0,0,1-.2-.4v-.4c0-.1.1-.2.2-.1l2.7,1.5a.8.8,0,0,1,.2.5v.3C21.4,24.7,21.3,24.7,21.2,24.7Z" style="fill:#eeb211"/><path d="M40.7,34.2a2.1,2.1,0,0,0,.7,2.4h.4c1.4.2,3.4.2,4.1-.6a.6.6,0,0,0,.1-.7,13.3,13.3,0,0,0-1-2.4C44.6,32.7,40.9,33.9,40.7,34.2Z" style="fill:#eeb211"/><path d="M45.6,34.1c-.2-.6-.4-1.1-.6-1.2s-4.1,1-4.3,1.3a.8.8,0,0,0-.2.4A9.9,9.9,0,0,0,45.6,34.1Z" style="opacity:0.6000000000000001;mix-blend-mode:screen;fill:url(#Áåçûìÿííûé_ãðàäèåíò_549-3)"/><path d="M47.5,35.4l-1.6-.3c-.7-.1-1.8,1.2-1.4,1.6l3.3.3C48.3,37,48.2,35.5,47.5,35.4Z" style="fill:#282523"/><path d="M3.2,22.7l-.9-.6a.3.3,0,0,1-.3-.3H2c0-.2.1-.2.3-.2l.9.6c.1.1.3.2.3.4h0A.2.2,0,0,1,3.2,22.7Z" style="fill:#cb5e12"/><path d="M48.9,49l-1-.5a.5.5,0,0,1-.2-.4h0c0-.1.1-.2.2-.1l1,.6c.1,0,.2.2.2.3h0C49.1,49.1,49,49.1,48.9,49Z" style="fill:#cb5e12"/><path d="M.6,13.7a6.9,6.9,0,0,0-.2,5.2c.7.2,1-2.8,1.1-4a1.2,1.2,0,0,0-.4-.8Z" style="fill:#911"/><path d="M75.1,52.5c1.1-.2,2.4,2.9,1.2,3.6s-4.3,1.5-8.6,1c-1.8-.6-2.2-4.2-.3-4.4A34.7,34.7,0,0,0,75.1,52.5Z" style="fill:#f0fdff"/><path d="M67.4,52.7c-2.9-.1-1.7,4.2.3,4.4C67.1,56.3,66.5,53.5,67.4,52.7Z" style="fill:#cb5e12"/><path d="M89.2,43c-.1.9.5,3.5.9,3.6s1.5-2.1,1.5-3.2a9.6,9.6,0,0,0-1.1-4.1A32.5,32.5,0,0,1,89.2,43Z" style="fill:#f0fdff"/><path d="M83,50.4a.8.8,0,0,0,1.2.4,1.1,1.1,0,0,0,.5-1.4.9.9,0,0,0-1.3-.4A1.2,1.2,0,0,0,83,50.4Z" style="fill:#4c4742"/><polygon points="88 52.7 81.8 56.9 81.8 59.1 88 55 88 52.7" style="fill:#fff"/></g><path d="M25.6,2.3,8.7,12.1c-1,.7,1.5.3,4.5-.2l5.3-.9a11.5,11.5,0,0,0,2.3-1A155.3,155.3,0,0,1,36.9,1.2l-9.5.7A3.4,3.4,0,0,0,25.6,2.3Z" style="fill:#282523"/><path d="M6.8,12.8,26.4,1.5,21.8.1a2.7,2.7,0,0,0-2,.3L2.6,10.4a2.5,2.5,0,0,0-1.2,1.1H1.3A30.6,30.6,0,0,0,6.8,12.8Z" style="fill:#ffc712"/><path d="M68.6,63a13.6,13.6,0,0,0,6.4-.7c.5-.1.3-.7.3-1.2a.4.4,0,0,0-.4-.4,16.7,16.7,0,0,1-6.2-.8.5.5,0,0,0-.6.5v1.9A.8.8,0,0,0,68.6,63Z" style="fill:#35312d"/><path d="M92,46.3a14.6,14.6,0,0,1-.4,2.6,1.9,1.9,0,0,0-.1.8v1.6c0,.1,0,.1.1.1a13.1,13.1,0,0,0,.5-1.5h0C92.1,49,92.1,47.7,92,46.3Z" style="fill:#35312d"/></g></g></g></g></svg>